STARTFONT 2.1
FONT -FontForge-Archivo Narrow-Bold-R-Normal--26-250-75-75-P-125-ISO10646-1
SIZE 25 75 75
FONTBOUNDINGBOX 29 32 -4 -7
COMMENT "Generated by fontforge, http://fontforge.sourceforge.net"
COMMENT "Copyright (c) 2012, Omnibus-Type (www.omnibus-type.com|omnibus.type@gmail.com),with Reserved Font Name: Archivo"
STARTPROPERTIES 40
FOUNDRY "FontForge"
FAMILY_NAME "Archivo Narrow"
WEIGHT_NAME "Bold"
SLANT "R"
SETWIDTH_NAME "Normal"
ADD_STYLE_NAME ""
PIXEL_SIZE 26
POINT_SIZE 250
RESOLUTION_X 75
RESOLUTION_Y 75
SPACING "P"
AVERAGE_WIDTH 125
CHARSET_REGISTRY "ISO10646"
CHARSET_ENCODING "1"
FONTNAME_REGISTRY ""
CHARSET_COLLECTIONS "ISO8859-2 ISO8859-9 ISO8859-4 ISO10646-1"
FONT_NAME "ArchivoNarrow-Bold"
FACE_NAME "Archivo Narrow Bold"
COPYRIGHT "Copyright (c) 2012, Omnibus-Type (www.omnibus-type.com|omnibus.type@gmail.com),with Reserved Font Name: Archivo"
FONT_VERSION "1.002; ttfautohint (v0.8)"
FONT_ASCENT 21
FONT_DESCENT 5
UNDERLINE_POSITION -1
UNDERLINE_THICKNESS 1
X_HEIGHT 13
CAP_HEIGHT 17
RAW_ASCENT 799
RAW_DESCENT 200
NORM_SPACE 6
RELATIVE_WEIGHT 70
RELATIVE_SETWIDTH 50
SUPERSCRIPT_X 0
SUPERSCRIPT_Y 12
SUPERSCRIPT_SIZE 16
SUBSCRIPT_X 0
SUBSCRIPT_Y 3
SUBSCRIPT_SIZE 16
FIGURE_WIDTH 12
AVG_LOWERCASE_WIDTH 116
AVG_UPPERCASE_WIDTH 145
ENDPROPERTIES
CHARS 416
STARTCHAR nonmarkingreturn
ENCODING 13
SWIDTH 0 0
DWIDTH 0 0
BBX 1 1 0 0
BITMAP
00
ENDCHAR
STARTCHAR space
ENCODING 32
SWIDTH 228 0
DWIDTH 6 0
BBX 1 1 0 0
BITMAP
00
ENDCHAR
STARTCHAR exclam
ENCODING 33
SWIDTH 272 0
DWIDTH 7 0
BBX 4 18 2 0
BITMAP
F0
E0
E0
E0
E0
E0
E0
E0
E0
E0
E0
E0
E0
00
E0
E0
E0
E0
ENDCHAR
STARTCHAR quotedbl
ENCODING 34
SWIDTH 389 0
DWIDTH 10 0
BBX 8 7 1 11
BITMAP
E7
E7
E7
E7
E7
E7
67
ENDCHAR
STARTCHAR numbersign
ENCODING 35
SWIDTH 456 0
DWIDTH 12 0
BBX 12 18 0 0
BITMAP
0660
0E60
0CE0
0CC0
0CC0
7FF0
7FF0
1980
1980
3980
FFE0
FFE0
FFE0
3300
7300
6700
6700
6600
ENDCHAR
STARTCHAR dollar
ENCODING 36
SWIDTH 456 0
DWIDTH 12 0
BBX 10 20 1 -1
BITMAP
0C00
0C00
0C00
3F00
7F80
FF80
EDC0
EC00
FC00
7F00
1F80
0FC0
EDC0
EDC0
FFC0
7F80
3F00
0C00
0C00
0C00
ENDCHAR
STARTCHAR percent
ENCODING 37
SWIDTH 729 0
DWIDTH 19 0
BBX 17 18 1 0
BITMAP
7C0600
FE0C00
EE1C00
C61800
C63000
C63000
EE6000
7CE000
3CC000
019F00
03BF80
033B80
073180
063180
0C3180
1C3B80
183F00
381F00
ENDCHAR
STARTCHAR ampersand
ENCODING 38
SWIDTH 591 0
DWIDTH 15 0
BBX 14 18 1 0
BITMAP
1F80
3FE0
7FE0
F0F0
F070
F000
7000
7E7C
1E7C
7E7C
7070
E070
E070
E070
F0F0
7FE0
7FC0
1F80
ENDCHAR
STARTCHAR quotesingle
ENCODING 39
SWIDTH 194 0
DWIDTH 5 0
BBX 3 7 1 11
BITMAP
E0
E0
E0
E0
E0
E0
E0
ENDCHAR
STARTCHAR parenleft
ENCODING 40
SWIDTH 272 0
DWIDTH 7 0
BBX 6 24 1 -5
BITMAP
1C
18
38
30
70
70
E0
E0
E0
E0
E0
E0
E0
E0
E0
E0
E0
E0
70
70
30
38
18
1C
ENDCHAR
STARTCHAR parenright
ENCODING 41
SWIDTH 272 0
DWIDTH 7 0
BBX 6 24 0 -5
BITMAP
E0
60
30
38
38
18
1C
1C
1C
1C
1C
1C
1C
1C
1C
1C
1C
1C
18
38
30
30
60
E0
ENDCHAR
STARTCHAR asterisk
ENCODING 42
SWIDTH 318 0
DWIDTH 8 0
BBX 8 8 0 10
BITMAP
18
5A
FF
7E
3E
FF
5A
18
ENDCHAR
STARTCHAR plus
ENCODING 43
SWIDTH 479 0
DWIDTH 12 0
BBX 11 14 1 0
BITMAP
0E00
0E00
0E00
0E00
0E00
0E00
FFE0
FFE0
FFE0
0E00
0E00
0E00
0E00
0E00
ENDCHAR
STARTCHAR comma
ENCODING 44
SWIDTH 228 0
DWIDTH 6 0
BBX 4 9 1 -5
BITMAP
F0
F0
F0
F0
70
60
60
60
C0
ENDCHAR
STARTCHAR hyphen
ENCODING 45
SWIDTH 272 0
DWIDTH 7 0
BBX 7 3 0 5
BITMAP
FE
FE
FE
ENDCHAR
STARTCHAR period
ENCODING 46
SWIDTH 228 0
DWIDTH 6 0
BBX 4 4 1 0
BITMAP
F0
F0
F0
F0
ENDCHAR
STARTCHAR slash
ENCODING 47
SWIDTH 228 0
DWIDTH 6 0
BBX 6 21 0 -2
BITMAP
0C
1C
18
18
18
18
18
38
30
30
30
30
70
70
60
60
60
60
E0
C0
C0
ENDCHAR
STARTCHAR zero
ENCODING 48
SWIDTH 456 0
DWIDTH 12 0
BBX 10 18 1 0
BITMAP
1E00
7F00
7F80
F380
E1C0
E1C0
E1C0
E1C0
E1C0
E1C0
E1C0
E1C0
E1C0
E1C0
F380
7F80
7F00
1E00
ENDCHAR
STARTCHAR one
ENCODING 49
SWIDTH 456 0
DWIDTH 12 0
BBX 11 18 1 0
BITMAP
0600
3E00
FE00
FE00
0E00
0E00
0E00
0E00
0E00
0E00
0E00
0E00
0E00
0E00
0E00
FFE0
FFE0
FFE0
ENDCHAR
STARTCHAR two
ENCODING 50
SWIDTH 456 0
DWIDTH 12 0
BBX 10 18 1 0
BITMAP
1F00
7F80
7FC0
F3C0
E1C0
E1C0
03C0
0380
0780
0F00
1F00
1E00
3C00
7800
7000
FFC0
FFC0
FFC0
ENDCHAR
STARTCHAR three
ENCODING 51
SWIDTH 456 0
DWIDTH 12 0
BBX 10 18 1 0
BITMAP
3E00
7F80
FF80
E3C0
E3C0
03C0
0380
0F80
0E00
0F80
03C0
01C0
E1C0
E1C0
E3C0
FF80
7F80
3E00
ENDCHAR
STARTCHAR four
ENCODING 52
SWIDTH 456 0
DWIDTH 12 0
BBX 12 18 0 0
BITMAP
0700
0E00
0EC0
0EC0
1CC0
1DC0
1DC0
39C0
39C0
71C0
61C0
FFF0
FFF0
FFF0
01C0
01C0
01C0
01C0
ENDCHAR
STARTCHAR five
ENCODING 53
SWIDTH 456 0
DWIDTH 12 0
BBX 10 18 1 0
BITMAP
7FC0
7FC0
7FC0
7000
7000
6000
EF00
FF80
FFC0
F1C0
01C0
01C0
E1C0
E1C0
F3C0
7F80
7F80
1E00
ENDCHAR
STARTCHAR six
ENCODING 54
SWIDTH 456 0
DWIDTH 12 0
BBX 10 18 1 0
BITMAP
1E00
7F00
7F80
F380
E3C0
E000
E600
FF80
FF80
F3C0
E1C0
E1C0
E1C0
E1C0
F3C0
7F80
7F80
1E00
ENDCHAR
STARTCHAR seven
ENCODING 55
SWIDTH 456 0
DWIDTH 12 0
BBX 10 18 1 0
BITMAP
FFC0
FFC0
FFC0
0380
0380
0700
0700
0E00
0E00
1C00
1C00
1C00
3C00
3800
3800
3800
3800
3800
ENDCHAR
STARTCHAR eight
ENCODING 56
SWIDTH 456 0
DWIDTH 12 0
BBX 10 18 1 0
BITMAP
1E00
7F80
7F80
F3C0
E1C0
E1C0
F380
7F80
3F00
7F80
F3C0
E1C0
E1C0
E1C0
E3C0
FFC0
7F80
3F00
ENDCHAR
STARTCHAR nine
ENCODING 57
SWIDTH 456 0
DWIDTH 12 0
BBX 10 18 1 0
BITMAP
3E00
7F00
FF80
E380
E1C0
E1C0
E1C0
E3C0
FFC0
7FC0
3DC0
01C0
E1C0
F1C0
7380
7F80
7F00
1E00
ENDCHAR
STARTCHAR colon
ENCODING 58
SWIDTH 272 0
DWIDTH 7 0
BBX 4 14 1 0
BITMAP
F0
F0
F0
F0
00
00
00
00
00
00
F0
F0
F0
F0
ENDCHAR
STARTCHAR semicolon
ENCODING 59
SWIDTH 272 0
DWIDTH 7 0
BBX 4 19 1 -5
BITMAP
F0
F0
F0
F0
00
00
00
00
00
00
F0
F0
F0
F0
30
60
60
60
C0
ENDCHAR
STARTCHAR less
ENCODING 60
SWIDTH 479 0
DWIDTH 12 0
BBX 11 14 1 0
BITMAP
0020
00E0
03E0
0FC0
3F00
FC00
F000
E000
F800
7E00
1F80
07E0
01E0
0060
ENDCHAR
STARTCHAR equal
ENCODING 61
SWIDTH 479 0
DWIDTH 12 0
BBX 11 8 1 3
BITMAP
FFE0
FFE0
FFE0
0000
0000
FFE0
FFE0
FFE0
ENDCHAR
STARTCHAR greater
ENCODING 62
SWIDTH 479 0
DWIDTH 12 0
BBX 11 14 1 0
BITMAP
8000
E000
F000
FC00
3F00
0FC0
03E0
01E0
07E0
1F80
7E00
F800
E000
8000
ENDCHAR
STARTCHAR question
ENCODING 63
SWIDTH 500 0
DWIDTH 13 0
BBX 11 18 1 0
BITMAP
1F00
3FC0
7FC0
F1E0
F1E0
F1E0
01C0
03C0
0780
0700
0F00
0F00
0F00
0000
0F00
0F00
0F00
0F00
ENDCHAR
STARTCHAR at
ENCODING 64
SWIDTH 799 0
DWIDTH 21 0
BBX 19 22 1 -4
BITMAP
03F800
0FFE00
1C0780
3001C0
61F0C0
63F8E0
C3FC60
C31C60
C01C60
C0FC60
C3FC60
C7FC60
C71C60
C71C60
C73CC0
C7FFC0
E3EF80
618600
300000
3C0800
0FF800
03E000
ENDCHAR
STARTCHAR A
ENCODING 65
SWIDTH 591 0
DWIDTH 15 0
BBX 15 18 0 0
BITMAP
03C0
07C0
07C0
06E0
0EE0
0EE0
0EF0
1C70
1C70
1C78
3C38
3838
3FFC
7FFC
7FFC
701E
F01E
E00E
ENDCHAR
STARTCHAR B
ENCODING 66
SWIDTH 591 0
DWIDTH 15 0
BBX 12 18 2 0
BITMAP
FFC0
FFE0
FFF0
E0F0
E070
E070
E0F0
FFE0
FF80
FFE0
E0F0
E070
E070
E070
E070
FFF0
FFE0
FFC0
ENDCHAR
STARTCHAR C
ENCODING 67
SWIDTH 591 0
DWIDTH 15 0
BBX 14 18 1 0
BITMAP
0FC0
3FF0
3FF0
7878
7038
F038
E03C
E000
E000
E000
E000
E03C
F038
F038
7878
7FF0
3FF0
0FC0
ENDCHAR
STARTCHAR D
ENCODING 68
SWIDTH 591 0
DWIDTH 15 0
BBX 13 18 2 0
BITMAP
FF00
FFC0
FFE0
E1E0
E0F0
E070
E070
E070
E078
E070
E070
E070
E070
E0F0
E1E0
FFE0
FFC0
FF00
ENDCHAR
STARTCHAR E
ENCODING 69
SWIDTH 546 0
DWIDTH 14 0
BBX 11 18 2 0
BITMAP
FFE0
FFE0
FFE0
E000
E000
E000
E000
FFC0
FFC0
FFC0
E000
E000
E000
E000
E000
FFE0
FFE0
FFE0
ENDCHAR
STARTCHAR F
ENCODING 70
SWIDTH 500 0
DWIDTH 13 0
BBX 10 18 2 0
BITMAP
FFC0
FFC0
FFC0
E000
E000
E000
E000
E000
FF80
FF80
FF80
E000
E000
E000
E000
E000
E000
E000
ENDCHAR
STARTCHAR G
ENCODING 71
SWIDTH 638 0
DWIDTH 17 0
BBX 14 18 1 0
BITMAP
0FC0
1FF0
3FF8
783C
703C
F01C
E000
E000
E1FC
E1FC
E1FC
E01C
F01C
F03C
787C
7FFC
3FEC
0F8C
ENDCHAR
STARTCHAR H
ENCODING 72
SWIDTH 591 0
DWIDTH 15 0
BBX 12 18 2 0
BITMAP
E0F0
E0F0
E0F0
E0F0
E0F0
E0F0
E0F0
FFF0
FFF0
FFF0
E0F0
E0F0
E0F0
E0F0
E0F0
E0F0
E0F0
E0F0
ENDCHAR
STARTCHAR I
ENCODING 73
SWIDTH 228 0
DWIDTH 6 0
BBX 4 18 1 0
BITMAP
F0
F0
F0
F0
F0
F0
F0
F0
F0
F0
F0
F0
F0
F0
F0
F0
F0
F0
ENDCHAR
STARTCHAR J
ENCODING 74
SWIDTH 456 0
DWIDTH 12 0
BBX 10 18 0 0
BITMAP
01C0
01C0
01C0
01C0
01C0
01C0
01C0
01C0
01C0
01C0
01C0
01C0
F1C0
F1C0
F1C0
7FC0
7F80
1F00
ENDCHAR
STARTCHAR K
ENCODING 75
SWIDTH 591 0
DWIDTH 15 0
BBX 13 18 2 0
BITMAP
E078
E0F0
E0E0
E1E0
E3C0
E380
E780
EF00
FF00
FF80
FB80
FBC0
F1C0
E1E0
E0F0
E0F0
E078
E078
ENDCHAR
STARTCHAR L
ENCODING 76
SWIDTH 500 0
DWIDTH 13 0
BBX 10 18 2 0
BITMAP
E000
E000
E000
E000
E000
E000
E000
E000
E000
E000
E000
E000
E000
E000
E000
FFC0
FFC0
FFC0
ENDCHAR
STARTCHAR M
ENCODING 77
SWIDTH 683 0
DWIDTH 18 0
BBX 15 18 1 0
BITMAP
F81E
F81E
FC3E
FC3E
FC3E
EC3E
EE7E
EE7E
EE6E
EE6E
E66E
E7EE
E7CE
E7CE
E3CE
E3CE
E3CE
E38E
ENDCHAR
STARTCHAR N
ENCODING 78
SWIDTH 591 0
DWIDTH 15 0
BBX 12 18 2 0
BITMAP
E070
E070
F070
F070
F870
FC70
FC70
DE70
EE70
EF70
E770
E7F0
E3F0
E3F0
E1F0
E1F0
E0F0
E070
ENDCHAR
STARTCHAR O
ENCODING 79
SWIDTH 638 0
DWIDTH 17 0
BBX 15 18 1 0
BITMAP
0FC0
1FF0
3FF8
783C
703C
F01C
E01E
E01E
E01E
E01E
E01E
E01E
F01C
703C
783C
3FF8
1FF0
0FC0
ENDCHAR
STARTCHAR P
ENCODING 80
SWIDTH 546 0
DWIDTH 14 0
BBX 12 18 2 0
BITMAP
FF80
FFC0
FFE0
E0E0
E0E0
E0F0
E0E0
E1E0
FFE0
FFC0
FF00
E000
E000
E000
E000
E000
E000
E000
ENDCHAR
STARTCHAR Q
ENCODING 81
SWIDTH 638 0
DWIDTH 17 0
BBX 15 21 1 -3
BITMAP
0FC0
1FF0
3FF8
783C
703C
F01C
E01E
E01E
E01E
E01E
E01E
E01E
F01C
703C
783C
3FF8
1FF0
0FE0
00F0
0078
003C
ENDCHAR
STARTCHAR R
ENCODING 82
SWIDTH 591 0
DWIDTH 15 0
BBX 13 18 2 0
BITMAP
FFC0
FFE0
FFF0
E0F0
E070
E070
E070
E0F0
FFE0
FFC0
FFC0
E1C0
E1E0
E1E0
E0E0
E0F0
E070
E078
ENDCHAR
STARTCHAR S
ENCODING 83
SWIDTH 546 0
DWIDTH 14 0
BBX 12 18 1 0
BITMAP
1F80
3FE0
7FE0
F0F0
F0F0
F000
F800
7F00
3FC0
1FE0
03F0
00F0
E070
E070
F0F0
7FE0
7FE0
1F80
ENDCHAR
STARTCHAR T
ENCODING 84
SWIDTH 500 0
DWIDTH 13 0
BBX 13 18 0 0
BITMAP
FFF8
FFF8
FFF8
0700
0700
0700
0700
0700
0700
0700
0700
0700
0700
0700
0700
0700
0700
0700
ENDCHAR
STARTCHAR U
ENCODING 85
SWIDTH 591 0
DWIDTH 15 0
BBX 12 18 2 0
BITMAP
E0F0
E0F0
E0F0
E0F0
E0F0
E0F0
E0F0
E0F0
E0F0
E0F0
E0F0
E0F0
E0F0
E0F0
F0E0
FFE0
7FC0
1F80
ENDCHAR
STARTCHAR V
ENCODING 86
SWIDTH 546 0
DWIDTH 14 0
BBX 14 18 0 0
BITMAP
F01C
F01C
7038
7038
7838
3878
3870
3C70
1C70
1CE0
1CE0
1EE0
0FC0
0FC0
0FC0
07C0
0780
0780
ENDCHAR
STARTCHAR W
ENCODING 87
SWIDTH 773 0
DWIDTH 20 0
BBX 20 18 0 0
BITMAP
E0F070
F0F070
70F870
70F860
71F8E0
71F8E0
79F8E0
399CC0
399CC0
399DC0
3B9DC0
3B9DC0
1F0D80
1F0F80
1F0F80
1F0F80
0F0780
0E0700
ENDCHAR
STARTCHAR X
ENCODING 88
SWIDTH 546 0
DWIDTH 14 0
BBX 14 18 0 0
BITMAP
F03C
7878
3870
3CF0
1CE0
1FE0
0FC0
0FC0
0780
07C0
0FC0
1FE0
1CE0
3CF0
3870
7878
7038
F03C
ENDCHAR
STARTCHAR Y
ENCODING 89
SWIDTH 546 0
DWIDTH 14 0
BBX 14 18 0 0
BITMAP
F01C
703C
7838
3878
3C70
1CF0
1CE0
0FE0
0FC0
07C0
0780
0780
0780
0780
0780
0780
0780
0780
ENDCHAR
STARTCHAR Z
ENCODING 90
SWIDTH 500 0
DWIDTH 13 0
BBX 12 18 0 0
BITMAP
7FF0
7FF0
7FF0
01E0
01E0
03C0
03C0
0780
0780
0F00
0E00
1E00
1C00
3C00
3800
7FF0
7FF0
FFF0
ENDCHAR
STARTCHAR bracketleft
ENCODING 91
SWIDTH 272 0
DWIDTH 7 0
BBX 5 24 1 -5
BITMAP
F8
F8
F8
E0
E0
E0
E0
E0
E0
E0
E0
E0
E0
E0
E0
E0
E0
E0
E0
E0
E0
F8
F8
F8
ENDCHAR
STARTCHAR backslash
ENCODING 92
SWIDTH 228 0
DWIDTH 6 0
BBX 6 21 0 -2
BITMAP
C0
E0
E0
60
60
60
60
70
30
30
30
30
30
38
18
18
18
18
1C
0C
0C
ENDCHAR
STARTCHAR bracketright
ENCODING 93
SWIDTH 272 0
DWIDTH 7 0
BBX 5 24 1 -5
BITMAP
F8
F8
F8
38
38
38
38
38
38
38
38
38
38
38
38
38
38
38
38
38
38
F8
F8
F8
ENDCHAR
STARTCHAR asciicircum
ENCODING 94
SWIDTH 479 0
DWIDTH 12 0
BBX 11 10 1 8
BITMAP
0E00
1E00
1F00
3F00
3B80
3380
7180
71C0
E1C0
E0E0
ENDCHAR
STARTCHAR underscore
ENCODING 95
SWIDTH 456 0
DWIDTH 12 0
BBX 12 2 0 -3
BITMAP
FFF0
FFF0
ENDCHAR
STARTCHAR grave
ENCODING 96
SWIDTH 272 0
DWIDTH 7 0
BBX 5 3 1 16
BITMAP
E0
70
38
ENDCHAR
STARTCHAR a
ENCODING 97
SWIDTH 456 0
DWIDTH 12 0
BBX 12 14 0 0
BITMAP
1F00
3FC0
7FC0
71C0
01C0
1FC0
3FC0
7FC0
71C0
F1C0
F1C0
7FF0
7FF0
3CF0
ENDCHAR
STARTCHAR b
ENCODING 98
SWIDTH 500 0
DWIDTH 13 0
BBX 11 19 1 0
BITMAP
F000
F000
F000
F000
F000
F780
FFC0
FFC0
F1E0
F1E0
F0E0
F0E0
F0E0
F0E0
F0E0
F1E0
FFC0
EFC0
E780
ENDCHAR
STARTCHAR c
ENCODING 99
SWIDTH 456 0
DWIDTH 12 0
BBX 10 14 1 0
BITMAP
1F00
7F80
7F80
F3C0
E1C0
E000
E000
E000
E000
E1C0
F1C0
7F80
7F80
1F00
ENDCHAR
STARTCHAR d
ENCODING 100
SWIDTH 500 0
DWIDTH 13 0
BBX 11 19 1 0
BITMAP
01E0
01E0
01E0
01E0
01E0
3DE0
7FE0
7FE0
F1E0
E1E0
E1E0
E1E0
E1E0
E1E0
E1E0
F1E0
7FE0
7EE0
3CE0
ENDCHAR
STARTCHAR e
ENCODING 101
SWIDTH 456 0
DWIDTH 12 0
BBX 10 14 1 0
BITMAP
1E00
7F80
7F80
E3C0
E1C0
FFC0
FFC0
FFC0
E000
E1C0
F1C0
7F80
7F80
1F00
ENDCHAR
STARTCHAR f
ENCODING 102
SWIDTH 272 0
DWIDTH 7 0
BBX 7 19 0 0
BITMAP
1E
3E
3E
38
38
FE
FE
FE
38
38
38
38
38
38
38
38
38
38
38
ENDCHAR
STARTCHAR g
ENCODING 103
SWIDTH 500 0
DWIDTH 13 0
BBX 13 21 0 -5
BITMAP
0038
0038
0FF0
1FE0
3FE0
38E0
78F0
78E0
38E0
3FE0
1FC0
3F00
7000
7FE0
3FF0
3FF8
7078
F038
FFF8
7FF0
3FE0
ENDCHAR
STARTCHAR h
ENCODING 104
SWIDTH 500 0
DWIDTH 13 0
BBX 11 19 1 0
BITMAP
F000
F000
F000
F000
F000
F780
FFC0
FFC0
F1E0
F1E0
F1E0
F1E0
F1E0
F1E0
F1E0
F1E0
F1E0
F1E0
F1E0
ENDCHAR
STARTCHAR i
ENCODING 105
SWIDTH 228 0
DWIDTH 6 0
BBX 4 19 1 0
BITMAP
F0
F0
F0
00
00
F0
F0
F0
F0
F0
F0
F0
F0
F0
F0
F0
F0
F0
F0
ENDCHAR
STARTCHAR j
ENCODING 106
SWIDTH 228 0
DWIDTH 6 0
BBX 6 24 -1 -5
BITMAP
3C
3C
3C
00
00
3C
3C
3C
3C
3C
3C
3C
3C
3C
3C
3C
3C
3C
3C
3C
3C
F8
F8
F0
ENDCHAR
STARTCHAR k
ENCODING 107
SWIDTH 456 0
DWIDTH 12 0
BBX 11 19 1 0
BITMAP
F000
F000
F000
F000
F000
F1E0
F3C0
F380
F700
FF00
FE00
FE00
FF00
F700
F780
F380
F3C0
F1C0
F1E0
ENDCHAR
STARTCHAR l
ENCODING 108
SWIDTH 228 0
DWIDTH 6 0
BBX 4 19 1 0
BITMAP
F0
F0
F0
F0
F0
F0
F0
F0
F0
F0
F0
F0
F0
F0
F0
F0
F0
F0
F0
ENDCHAR
STARTCHAR m
ENCODING 109
SWIDTH 729 0
DWIDTH 19 0
BBX 17 14 1 0
BITMAP
E79E00
EFFF00
FFFF00
F1E780
F1C780
F1C780
F1C780
F1C780
F1C780
F1C780
F1C780
F1C780
F1C780
F1C780
ENDCHAR
STARTCHAR n
ENCODING 110
SWIDTH 500 0
DWIDTH 13 0
BBX 11 14 1 0
BITMAP
E780
EFC0
FFC0
F1E0
F1E0
F1E0
F1E0
F1E0
F1E0
F1E0
F1E0
F1E0
F1E0
F1E0
ENDCHAR
STARTCHAR o
ENCODING 111
SWIDTH 500 0
DWIDTH 13 0
BBX 11 14 1 0
BITMAP
1F00
3F80
7FC0
F1E0
E0E0
E0E0
E0E0
E0E0
E0E0
F0E0
F1E0
7FC0
3F80
1F00
ENDCHAR
STARTCHAR p
ENCODING 112
SWIDTH 500 0
DWIDTH 13 0
BBX 11 19 1 -5
BITMAP
E780
EFC0
FFC0
F1E0
F1E0
F0E0
F0E0
F0E0
F0E0
F0E0
F1E0
FFC0
FFC0
F780
F000
F000
F000
F000
F000
ENDCHAR
STARTCHAR q
ENCODING 113
SWIDTH 500 0
DWIDTH 13 0
BBX 11 19 1 -5
BITMAP
3CE0
7EE0
7FE0
F1E0
E1E0
E1E0
E1E0
E1E0
E1E0
E1E0
F1E0
7FE0
7FE0
3DE0
01E0
01E0
01E0
01E0
01E0
ENDCHAR
STARTCHAR r
ENCODING 114
SWIDTH 318 0
DWIDTH 8 0
BBX 7 14 1 0
BITMAP
EE
EE
FE
F0
F0
F0
F0
F0
F0
F0
F0
F0
F0
F0
ENDCHAR
STARTCHAR s
ENCODING 115
SWIDTH 456 0
DWIDTH 12 0
BBX 10 14 1 0
BITMAP
3E00
7F80
FF80
E3C0
E000
F800
7F00
3F80
03C0
E1C0
E1C0
FFC0
7F80
3F00
ENDCHAR
STARTCHAR t
ENCODING 116
SWIDTH 272 0
DWIDTH 7 0
BBX 7 18 0 0
BITMAP
38
38
38
38
FE
FE
FE
38
38
38
38
38
38
38
38
3E
3E
1E
ENDCHAR
STARTCHAR u
ENCODING 117
SWIDTH 500 0
DWIDTH 13 0
BBX 11 14 1 0
BITMAP
F1E0
F1E0
F1E0
F1E0
F1E0
F1E0
F1E0
F1E0
F1E0
F1E0
F1E0
7FE0
7EE0
3CE0
ENDCHAR
STARTCHAR v
ENCODING 118
SWIDTH 456 0
DWIDTH 12 0
BBX 12 14 0 0
BITMAP
F0F0
70E0
70E0
70E0
79C0
39C0
39C0
3D80
1F80
1F80
1F80
0F00
0F00
0F00
ENDCHAR
STARTCHAR w
ENCODING 119
SWIDTH 638 0
DWIDTH 17 0
BBX 17 14 0 0
BITMAP
E1C380
E1C700
73C700
73E700
73E700
73E600
3B6E00
3F6E00
3F7E00
3E7C00
1E7C00
1E3C00
1E3C00
1E3800
ENDCHAR
STARTCHAR x
ENCODING 120
SWIDTH 456 0
DWIDTH 12 0
BBX 12 14 0 0
BITMAP
F0F0
79E0
39C0
3FC0
1F80
1F80
0F00
0F00
1F80
1F80
3BC0
79C0
71E0
F0F0
ENDCHAR
STARTCHAR y
ENCODING 121
SWIDTH 456 0
DWIDTH 12 0
BBX 12 19 0 -5
BITMAP
F0F0
70E0
70E0
70E0
39E0
39C0
39C0
1DC0
1D80
1F80
1F80
0F80
0F00
0F00
0700
0E00
7E00
7C00
7800
ENDCHAR
STARTCHAR z
ENCODING 122
SWIDTH 410 0
DWIDTH 11 0
BBX 10 14 0 0
BITMAP
7FC0
7FC0
7F80
0780
0700
0F00
0E00
1E00
1C00
3C00
3800
7FC0
7FC0
FFC0
ENDCHAR
STARTCHAR braceleft
ENCODING 123
SWIDTH 318 0
DWIDTH 8 0
BBX 7 24 1 -5
BITMAP
0E
3E
38
38
38
38
38
38
38
30
70
F0
C0
F0
70
38
38
38
38
38
38
38
3E
0E
ENDCHAR
STARTCHAR bar
ENCODING 124
SWIDTH 229 0
DWIDTH 6 0
BBX 2 24 2 -5
BITMAP
C0
C0
C0
C0
C0
C0
C0
C0
C0
C0
C0
C0
C0
C0
C0
C0
C0
C0
C0
C0
C0
C0
C0
C0
ENDCHAR
STARTCHAR braceright
ENCODING 125
SWIDTH 318 0
DWIDTH 8 0
BBX 7 24 1 -5
BITMAP
E0
F0
70
38
38
38
38
38
38
38
38
1E
0E
3E
38
38
38
38
38
38
38
70
F0
E0
ENDCHAR
STARTCHAR asciitilde
ENCODING 126
SWIDTH 479 0
DWIDTH 12 0
BBX 11 5 1 5
BITMAP
3020
F820
FFE0
8FC0
8380
ENDCHAR
STARTCHAR uni00A0
ENCODING 160
SWIDTH 228 0
DWIDTH 6 0
BBX 1 1 0 0
BITMAP
00
ENDCHAR
STARTCHAR exclamdown
ENCODING 161
SWIDTH 272 0
DWIDTH 7 0
BBX 4 19 2 -5
BITMAP
E0
E0
E0
E0
00
00
E0
E0
E0
E0
E0
E0
E0
E0
E0
E0
E0
E0
F0
ENDCHAR
STARTCHAR cent
ENCODING 162
SWIDTH 456 0
DWIDTH 12 0
BBX 10 20 1 -1
BITMAP
0C00
0C00
0C00
3F00
7F80
7FC0
EDC0
EDC0
EC00
EC00
EC00
EC00
EDC0
FDC0
7F80
7F80
1F00
0C00
0C00
0C00
ENDCHAR
STARTCHAR sterling
ENCODING 163
SWIDTH 456 0
DWIDTH 12 0
BBX 11 18 0 0
BITMAP
0F80
1FC0
3FE0
38E0
38E0
3800
3800
3800
FF00
FF00
FF00
3800
3800
3800
3800
7FE0
7FE0
7FE0
ENDCHAR
STARTCHAR currency
ENCODING 164
SWIDTH 456 0
DWIDTH 12 0
BBX 12 13 0 3
BITMAP
0600
5FE0
FFF0
71E0
60E0
6060
6060
6060
6060
70E0
7FE0
FFF0
4F20
ENDCHAR
STARTCHAR yen
ENCODING 165
SWIDTH 456 0
DWIDTH 12 0
BBX 12 18 0 0
BITMAP
F0F0
70E0
70E0
39C0
39C0
3980
1F80
1F80
7FE0
7FE0
0E00
7FE0
7FE0
7FE0
0E00
0E00
0E00
0E00
ENDCHAR
STARTCHAR brokenbar
ENCODING 166
SWIDTH 229 0
DWIDTH 6 0
BBX 2 24 2 -5
BITMAP
C0
C0
C0
C0
C0
C0
C0
C0
C0
C0
00
00
00
00
C0
C0
C0
C0
C0
C0
C0
C0
C0
C0
ENDCHAR
STARTCHAR section
ENCODING 167
SWIDTH 456 0
DWIDTH 12 0
BBX 10 23 1 -5
BITMAP
1F00
7F80
7FC0
F3C0
F000
F000
7800
7E00
7F80
EFC0
E3C0
E1C0
F1C0
F9C0
7F80
1F80
0780
03C0
01C0
F1C0
7FC0
7F80
3E00
ENDCHAR
STARTCHAR dieresis
ENCODING 168
SWIDTH 272 0
DWIDTH 7 0
BBX 7 3 0 16
BITMAP
E6
E6
E6
ENDCHAR
STARTCHAR copyright
ENCODING 169
SWIDTH 604 0
DWIDTH 16 0
BBX 15 18 0 0
BITMAP
07E0
1C30
3018
200C
63C6
47E6
4E72
CC72
CC02
CC02
CC32
4E72
47E6
63C4
200C
3018
1C30
07E0
ENDCHAR
STARTCHAR ordfeminine
ENCODING 170
SWIDTH 303 0
DWIDTH 8 0
BBX 8 10 0 9
BITMAP
3C
7E
66
06
3E
7E
E6
E6
7F
73
ENDCHAR
STARTCHAR guillemotleft
ENCODING 171
SWIDTH 456 0
DWIDTH 12 0
BBX 11 10 0 4
BITMAP
0CE0
1CC0
39C0
3380
7380
F780
3380
39C0
1CC0
0CE0
ENDCHAR
STARTCHAR logicalnot
ENCODING 172
SWIDTH 479 0
DWIDTH 12 0
BBX 11 7 1 5
BITMAP
FFE0
FFE0
FFE0
00E0
00E0
00E0
00E0
ENDCHAR
STARTCHAR uni00AD
ENCODING 173
SWIDTH 272 0
DWIDTH 7 0
BBX 7 3 0 5
BITMAP
FE
FE
FE
ENDCHAR
STARTCHAR registered
ENCODING 174
SWIDTH 604 0
DWIDTH 16 0
BBX 15 18 0 0
BITMAP
07E0
1C30
3018
200C
67C6
47E6
47F2
C662
C7E2
C7E2
C662
4662
4676
6674
200C
3018
1C30
07E0
ENDCHAR
STARTCHAR macron
ENCODING 175
SWIDTH 272 0
DWIDTH 7 0
BBX 7 3 0 15
BITMAP
FE
FE
FE
ENDCHAR
STARTCHAR degree
ENCODING 176
SWIDTH 399 0
DWIDTH 10 0
BBX 8 8 1 10
BITMAP
3C
7E
63
C3
C3
67
7E
1C
ENDCHAR
STARTCHAR plusminus
ENCODING 177
SWIDTH 548 0
DWIDTH 14 0
BBX 10 16 2 0
BITMAP
0C00
0C00
0C00
0C00
0C00
FFC0
FFC0
FFC0
0C00
0C00
0C00
0C00
0000
FFC0
FFC0
FFC0
ENDCHAR
STARTCHAR twosuperior
ENCODING 178
SWIDTH 272 0
DWIDTH 7 0
BBX 7 11 0 8
BITMAP
38
7C
6E
EC
0C
1C
38
30
60
FE
FE
ENDCHAR
STARTCHAR threesuperior
ENCODING 179
SWIDTH 272 0
DWIDTH 7 0
BBX 7 11 0 8
BITMAP
38
7C
6E
0C
1C
1C
0C
EE
EE
7C
38
ENDCHAR
STARTCHAR acute
ENCODING 180
SWIDTH 272 0
DWIDTH 7 0
BBX 6 3 1 16
BITMAP
3C
70
E0
ENDCHAR
STARTCHAR mu
ENCODING 181
SWIDTH 500 0
DWIDTH 13 0
BBX 11 19 1 -5
BITMAP
F1E0
F1E0
F1E0
F1E0
F1E0
F1E0
F1E0
F1E0
F1E0
F1E0
F1E0
FFE0
FEE0
FCE0
F000
F000
F000
F000
F000
ENDCHAR
STARTCHAR paragraph
ENCODING 182
SWIDTH 456 0
DWIDTH 12 0
BBX 12 23 0 -5
BITMAP
1FF0
3FF0
7EC0
7EC0
7EC0
FEC0
FEC0
7EC0
7EC0
3EC0
3EC0
0EC0
06C0
06C0
06C0
06C0
06C0
06C0
06C0
06C0
06C0
06C0
06C0
ENDCHAR
STARTCHAR periodcentered
ENCODING 183
SWIDTH 228 0
DWIDTH 6 0
BBX 4 3 1 7
BITMAP
F0
F0
F0
ENDCHAR
STARTCHAR cedilla
ENCODING 184
SWIDTH 272 0
DWIDTH 7 0
BBX 5 5 1 -5
BITMAP
60
70
78
18
F0
ENDCHAR
STARTCHAR onesuperior
ENCODING 185
SWIDTH 272 0
DWIDTH 7 0
BBX 6 11 1 8
BITMAP
30
F0
F0
30
30
30
30
30
30
FC
FC
ENDCHAR
STARTCHAR ordmasculine
ENCODING 186
SWIDTH 298 0
DWIDTH 8 0
BBX 8 10 0 9
BITMAP
3C
7E
66
E7
E7
E7
E7
66
7E
3C
ENDCHAR
STARTCHAR guillemotright
ENCODING 187
SWIDTH 456 0
DWIDTH 12 0
BBX 10 10 1 4
BITMAP
CE00
6700
7380
3B80
39C0
3DC0
3B80
7380
6700
CE00
ENDCHAR
STARTCHAR onequarter
ENCODING 188
SWIDTH 684 0
DWIDTH 18 0
BBX 16 18 1 0
BITMAP
300C
F00C
3018
3010
3030
3020
3060
30CC
FCD8
FD98
011A
0332
0236
067F
0C7F
0C06
1806
3006
ENDCHAR
STARTCHAR onehalf
ENCODING 189
SWIDTH 684 0
DWIDTH 18 0
BBX 16 18 1 0
BITMAP
300C
F008
F018
3010
3030
3060
3060
30DE
FCBF
FDB3
0133
0303
0606
060E
0C1C
0818
183F
303F
ENDCHAR
STARTCHAR threequarters
ENCODING 190
SWIDTH 684 0
DWIDTH 18 0
BBX 16 18 1 0
BITMAP
780C
FC08
CC18
0C10
3830
3860
0C60
CCCC
CC9C
FD98
711A
0332
0636
067F
0C7F
0806
1806
3006
ENDCHAR
STARTCHAR questiondown
ENCODING 191
SWIDTH 500 0
DWIDTH 13 0
BBX 11 19 1 -5
BITMAP
1E00
1E00
1E00
1E00
0000
0000
1E00
1E00
1C00
3C00
7800
7000
F000
F1E0
F1E0
F1E0
7FC0
7F80
1F00
ENDCHAR
STARTCHAR Agrave
ENCODING 192
SWIDTH 591 0
DWIDTH 15 0
BBX 15 23 0 0
BITMAP
0F00
0700
0380
0000
0000
03C0
07C0
07C0
06E0
0EE0
0EE0
0EF0
1C70
1C70
1C78
3C38
3838
3FFC
7FFC
7FFC
701E
F01E
E00E
ENDCHAR
STARTCHAR Aacute
ENCODING 193
SWIDTH 591 0
DWIDTH 15 0
BBX 15 23 0 0
BITMAP
00E0
01C0
0380
0000
0000
03C0
07C0
07C0
06E0
0EE0
0EE0
0EF0
1C70
1C70
1C78
3C38
3838
3FFC
7FFC
7FFC
701E
F01E
E00E
ENDCHAR
STARTCHAR Acircumflex
ENCODING 194
SWIDTH 591 0
DWIDTH 15 0
BBX 15 23 0 0
BITMAP
0380
03C0
06C0
0E60
0000
03C0
07C0
07C0
06E0
0EE0
0EE0
0EF0
1C70
1C70
1C78
3C38
3838
3FFC
7FFC
7FFC
701E
F01E
E00E
ENDCHAR
STARTCHAR Atilde
ENCODING 195
SWIDTH 591 0
DWIDTH 15 0
BBX 15 23 0 0
BITMAP
0730
0FF0
1FE0
1840
0000
03C0
07C0
07C0
06E0
0EE0
0EE0
0EF0
1C70
1C70
1C78
3C38
3838
3FFC
7FFC
7FFC
701E
F01E
E00E
ENDCHAR
STARTCHAR Adieresis
ENCODING 196
SWIDTH 591 0
DWIDTH 15 0
BBX 15 23 0 0
BITMAP
0E60
0E60
0E60
0000
0000
03C0
07C0
07C0
06E0
0EE0
0EE0
0EF0
1C70
1C70
1C78
3C38
3838
3FFC
7FFC
7FFC
701E
F01E
E00E
ENDCHAR
STARTCHAR Aring
ENCODING 197
SWIDTH 591 0
DWIDTH 15 0
BBX 15 24 0 0
BITMAP
0380
06C0
0640
0640
0380
0000
03C0
07C0
07C0
06E0
0EE0
0EE0
0EF0
1C70
1C70
1C78
3C38
3838
3FFC
7FFC
7FFC
701E
F01E
E00E
ENDCHAR
STARTCHAR AE
ENCODING 198
SWIDTH 819 0
DWIDTH 21 0
BBX 20 18 0 0
BITMAP
03FFF0
03FFF0
03FFF0
07F000
07F000
067000
0E7000
0E7FE0
1C7FE0
1C3FE0
1C3800
383800
3FFC00
7FFC00
7FFC00
701FF0
E01FF0
E01FF0
ENDCHAR
STARTCHAR Ccedilla
ENCODING 199
SWIDTH 591 0
DWIDTH 15 0
BBX 14 23 1 -5
BITMAP
0FC0
1FE0
3FF0
7878
7038
F038
E03C
E000
E000
E000
E000
E000
F03C
F038
7038
7878
3FF0
3FE0
0FC0
0300
0380
01C0
0780
ENDCHAR
STARTCHAR Egrave
ENCODING 200
SWIDTH 546 0
DWIDTH 14 0
BBX 11 23 2 0
BITMAP
7800
1C00
0E00
0000
0000
FFE0
FFE0
FFE0
E000
E000
E000
E000
FFC0
FFC0
FFC0
E000
E000
E000
E000
E000
FFE0
FFE0
FFE0
ENDCHAR
STARTCHAR Eacute
ENCODING 201
SWIDTH 546 0
DWIDTH 14 0
BBX 11 23 2 0
BITMAP
0780
0E00
1C00
0000
0000
FFE0
FFE0
FFE0
E000
E000
E000
E000
FFC0
FFC0
FFC0
E000
E000
E000
E000
E000
FFE0
FFE0
FFE0
ENDCHAR
STARTCHAR Ecircumflex
ENCODING 202
SWIDTH 546 0
DWIDTH 14 0
BBX 11 23 2 0
BITMAP
0E00
1E00
3B00
3380
0000
FFE0
FFE0
FFE0
E000
E000
E000
E000
FFC0
FFC0
FFC0
E000
E000
E000
E000
E000
FFE0
FFE0
FFE0
ENDCHAR
STARTCHAR Edieresis
ENCODING 203
SWIDTH 546 0
DWIDTH 14 0
BBX 11 23 2 0
BITMAP
3380
3380
3380
0000
0000
FFE0
FFE0
FFE0
E000
E000
E000
E000
FFC0
FFC0
FFC0
E000
E000
E000
E000
E000
FFE0
FFE0
FFE0
ENDCHAR
STARTCHAR Igrave
ENCODING 204
SWIDTH 228 0
DWIDTH 6 0
BBX 6 23 -1 0
BITMAP
F0
38
1C
00
00
3C
3C
3C
3C
3C
3C
3C
3C
3C
3C
3C
3C
3C
3C
3C
3C
3C
3C
ENDCHAR
STARTCHAR Iacute
ENCODING 205
SWIDTH 228 0
DWIDTH 6 0
BBX 6 23 1 0
BITMAP
3C
70
E0
00
00
F0
F0
F0
F0
F0
F0
F0
F0
F0
F0
F0
F0
F0
F0
F0
F0
F0
F0
ENDCHAR
STARTCHAR Icircumflex
ENCODING 206
SWIDTH 228 0
DWIDTH 6 0
BBX 7 23 -1 0
BITMAP
3C
3C
7E
E6
00
3C
3C
3C
3C
3C
3C
3C
3C
3C
3C
3C
3C
3C
3C
3C
3C
3C
3C
ENDCHAR
STARTCHAR Idieresis
ENCODING 207
SWIDTH 228 0
DWIDTH 6 0
BBX 8 23 -1 0
BITMAP
E7
E7
E7
00
00
3C
3C
3C
3C
3C
3C
3C
3C
3C
3C
3C
3C
3C
3C
3C
3C
3C
3C
ENDCHAR
STARTCHAR Eth
ENCODING 208
SWIDTH 591 0
DWIDTH 15 0
BBX 15 18 0 0
BITMAP
3FC0
3FF0
3FF8
3878
383C
381C
381C
FF1C
FF1E
FF1C
381C
381C
381C
383C
3878
3FF8
3FF0
3FC0
ENDCHAR
STARTCHAR Ntilde
ENCODING 209
SWIDTH 591 0
DWIDTH 15 0
BBX 12 23 2 0
BITMAP
1CC0
3FC0
7F80
6100
0000
E070
E070
F070
F070
F870
FC70
FC70
DE70
EE70
EF70
E770
E7F0
E3F0
E3F0
E1F0
E1F0
E0F0
E070
ENDCHAR
STARTCHAR Ograve
ENCODING 210
SWIDTH 638 0
DWIDTH 17 0
BBX 15 23 1 0
BITMAP
0E00
0700
0380
0000
0000
0FC0
1FF0
3FF8
783C
703C
F01C
E01E
E01E
E01E
E01E
E01E
E01E
F01C
703C
783C
3FF8
1FF0
0FC0
ENDCHAR
STARTCHAR Oacute
ENCODING 211
SWIDTH 638 0
DWIDTH 17 0
BBX 15 23 1 0
BITMAP
01E0
01C0
0380
0000
0000
0FC0
1FF0
3FF8
783C
703C
F01C
E01E
E01E
E01E
E01E
E01E
E01E
F01C
703C
783C
3FF8
1FF0
0FC0
ENDCHAR
STARTCHAR Ocircumflex
ENCODING 212
SWIDTH 638 0
DWIDTH 17 0
BBX 15 24 1 0
BITMAP
0380
0780
07C0
0CE0
0000
0000
0FC0
1FF0
3FF8
787C
703C
F01C
F01E
E01E
E01E
E01E
E01E
E01E
F01C
701C
783C
3FF8
1FF0
0FC0
ENDCHAR
STARTCHAR Otilde
ENCODING 213
SWIDTH 638 0
DWIDTH 17 0
BBX 15 24 1 0
BITMAP
0430
0FF0
1FE0
19E0
0000
0000
0FC0
1FF0
3FF8
783C
703C
F01C
E01E
E01E
E01E
E01E
E01E
E01E
F01C
703C
783C
3FF8
1FF0
0FC0
ENDCHAR
STARTCHAR Odieresis
ENCODING 214
SWIDTH 638 0
DWIDTH 17 0
BBX 15 23 1 0
BITMAP
0CE0
0CE0
0CE0
0000
0000
0FC0
1FF0
3FF8
783C
703C
F01C
E01E
E01E
E01E
E01E
E01E
E01E
F01C
703C
783C
3FF8
1FF0
0FC0
ENDCHAR
STARTCHAR multiply
ENCODING 215
SWIDTH 479 0
DWIDTH 12 0
BBX 11 11 1 1
BITMAP
40C0
E1E0
73C0
3F80
1F00
1E00
3F00
7B80
F1C0
E0E0
4040
ENDCHAR
STARTCHAR Oslash
ENCODING 216
SWIDTH 638 0
DWIDTH 17 0
BBX 15 20 1 -1
BITMAP
000E
0FCC
1FF8
3FF8
783C
707C
F0FC
E0DE
E19E
E19E
E31E
E61E
E61C
FC1C
FC3C
783C
7FF8
7FF0
6FC0
C000
ENDCHAR
STARTCHAR Ugrave
ENCODING 217
SWIDTH 591 0
DWIDTH 15 0
BBX 12 23 2 0
BITMAP
3C00
1C00
0E00
0100
0000
E0F0
E0F0
E0F0
E0F0
E0F0
E0F0
E0F0
E0F0
E0F0
E0F0
E0F0
E0F0
E0F0
E0F0
F0E0
FFE0
7FC0
1F80
ENDCHAR
STARTCHAR Uacute
ENCODING 218
SWIDTH 591 0
DWIDTH 15 0
BBX 12 23 2 0
BITMAP
0380
0700
0E00
0000
0000
E0F0
E0F0
E0F0
E0F0
E0F0
E0F0
E0F0
E0F0
E0F0
E0F0
E0F0
E0F0
E0F0
E0F0
F0E0
FFE0
7FC0
1F80
ENDCHAR
STARTCHAR Ucircumflex
ENCODING 219
SWIDTH 591 0
DWIDTH 15 0
BBX 12 24 2 0
BITMAP
0E00
0F00
1B00
3980
0000
0000
E0F0
E0F0
E0F0
E0F0
E0F0
E0F0
E0F0
E0F0
E0F0
E0F0
E0F0
E0F0
E0F0
E0F0
F0E0
FFE0
7FC0
1F80
ENDCHAR
STARTCHAR Udieresis
ENCODING 220
SWIDTH 591 0
DWIDTH 15 0
BBX 12 23 2 0
BITMAP
3980
3980
3980
0000
0000
E0F0
E0F0
E0F0
E0F0
E0F0
E0F0
E0F0
E0F0
E0F0
E0F0
E0F0
E0F0
E0F0
E0F0
F0E0
FFE0
7FC0
1F80
ENDCHAR
STARTCHAR Yacute
ENCODING 221
SWIDTH 546 0
DWIDTH 14 0
BBX 14 23 0 0
BITMAP
01E0
0380
0700
0000
0000
F01C
703C
7838
3878
3C70
1CF0
1CE0
0FE0
0FC0
07C0
0780
0780
0780
0780
0780
0780
0780
0780
ENDCHAR
STARTCHAR Thorn
ENCODING 222
SWIDTH 546 0
DWIDTH 14 0
BBX 12 18 2 0
BITMAP
E000
E000
E000
FE00
FFC0
FFE0
E1E0
E0E0
E0F0
E0E0
E0E0
FFE0
FFC0
FF80
E000
E000
E000
E000
ENDCHAR
STARTCHAR germandbls
ENCODING 223
SWIDTH 500 0
DWIDTH 13 0
BBX 11 19 1 0
BITMAP
1F00
7F80
7FC0
F1E0
E0E0
E0E0
E1C0
E1C0
EF80
EF80
EFC0
E1E0
E0E0
E0E0
E0E0
E1E0
EFE0
EFC0
EF00
ENDCHAR
STARTCHAR agrave
ENCODING 224
SWIDTH 456 0
DWIDTH 12 0
BBX 12 19 0 0
BITMAP
3C00
1C00
0E00
0000
0000
1F00
3FC0
7FC0
71C0
01C0
1FC0
3FC0
7FC0
71C0
F1C0
F1C0
7FF0
7FF0
3CF0
ENDCHAR
STARTCHAR aacute
ENCODING 225
SWIDTH 456 0
DWIDTH 12 0
BBX 12 19 0 0
BITMAP
0380
0700
0E00
0000
0000
1F00
3FC0
7FC0
71C0
01C0
1FC0
3FC0
7FC0
71C0
F1C0
F1C0
7FF0
7FF0
3CF0
ENDCHAR
STARTCHAR acircumflex
ENCODING 226
SWIDTH 456 0
DWIDTH 12 0
BBX 12 19 0 0
BITMAP
0E00
1F00
1B00
3980
0000
1F00
3FC0
7FC0
71C0
01C0
1FC0
3FC0
7FC0
71C0
F1C0
F1C0
7FF0
7FF0
3CF0
ENDCHAR
STARTCHAR atilde
ENCODING 227
SWIDTH 456 0
DWIDTH 12 0
BBX 12 19 0 0
BITMAP
3CC0
3FC0
7F80
6100
0000
1F00
3FC0
7FC0
71C0
01C0
1FC0
3FC0
7FC0
71C0
F1C0
F1C0
7FF0
7FF0
3CF0
ENDCHAR
STARTCHAR adieresis
ENCODING 228
SWIDTH 456 0
DWIDTH 12 0
BBX 12 19 0 0
BITMAP
3980
3980
3980
0000
0000
1F00
3FC0
7FC0
71C0
01C0
1FC0
3FC0
7FC0
71C0
F1C0
F1C0
7FF0
7FF0
3CF0
ENDCHAR
STARTCHAR aring
ENCODING 229
SWIDTH 456 0
DWIDTH 12 0
BBX 12 20 0 0
BITMAP
0E00
1B00
1100
1900
0E00
0000
1F00
3FC0
7FC0
71C0
01C0
1FC0
3FC0
7FC0
71C0
F1C0
F1C0
7FF0
7FF0
3CF0
ENDCHAR
STARTCHAR ae
ENCODING 230
SWIDTH 729 0
DWIDTH 19 0
BBX 17 14 1 0
BITMAP
1F3C00
7FFF00
7FFF00
71C780
01C380
1FFF80
7FFF80
7FFF80
F1C000
E1C380
E3E780
FFFF00
7FFF00
3C3E00
ENDCHAR
STARTCHAR ccedilla
ENCODING 231
SWIDTH 456 0
DWIDTH 12 0
BBX 10 19 1 -5
BITMAP
1F00
3F80
7F80
F3C0
E1C0
E1C0
E000
E000
E000
E1C0
F1C0
73C0
7F80
3F00
0C00
0E00
0300
0700
1E00
ENDCHAR
STARTCHAR egrave
ENCODING 232
SWIDTH 456 0
DWIDTH 12 0
BBX 10 19 1 0
BITMAP
7800
1C00
0E00
0000
0000
1E00
7F80
7F80
E3C0
E1C0
FFC0
FFC0
FFC0
E000
E1C0
F1C0
7F80
7F80
1F00
ENDCHAR
STARTCHAR eacute
ENCODING 233
SWIDTH 456 0
DWIDTH 12 0
BBX 10 19 1 0
BITMAP
0780
0E00
1C00
0000
0000
1E00
7F80
7F80
E3C0
E1C0
FFC0
FFC0
FFC0
E000
E1C0
F1C0
7F80
7F80
1F00
ENDCHAR
STARTCHAR ecircumflex
ENCODING 234
SWIDTH 456 0
DWIDTH 12 0
BBX 10 19 1 0
BITMAP
1E00
1E00
3F00
7300
0000
1E00
7F80
7F80
E3C0
E1C0
FFC0
FFC0
FFC0
E000
E1C0
F1C0
7F80
7F80
1F00
ENDCHAR
STARTCHAR edieresis
ENCODING 235
SWIDTH 456 0
DWIDTH 12 0
BBX 10 19 1 0
BITMAP
7380
7380
7380
0000
0000
1E00
7F80
7F80
E3C0
E1C0
FFC0
FFC0
FFC0
E000
E1C0
F1C0
7F80
7F80
1F00
ENDCHAR
STARTCHAR igrave
ENCODING 236
SWIDTH 228 0
DWIDTH 6 0
BBX 6 19 -1 0
BITMAP
F0
38
1C
00
00
3C
3C
3C
3C
3C
3C
3C
3C
3C
3C
3C
3C
3C
3C
ENDCHAR
STARTCHAR iacute
ENCODING 237
SWIDTH 228 0
DWIDTH 6 0
BBX 6 19 1 0
BITMAP
3C
70
E0
00
00
F0
F0
F0
F0
F0
F0
F0
F0
F0
F0
F0
F0
F0
F0
ENDCHAR
STARTCHAR icircumflex
ENCODING 238
SWIDTH 228 0
DWIDTH 6 0
BBX 7 19 -1 0
BITMAP
3C
3C
7E
E6
00
3C
3C
3C
3C
3C
3C
3C
3C
3C
3C
3C
3C
3C
3C
ENDCHAR
STARTCHAR idieresis
ENCODING 239
SWIDTH 228 0
DWIDTH 6 0
BBX 8 19 -1 0
BITMAP
E7
E7
E7
00
00
3C
3C
3C
3C
3C
3C
3C
3C
3C
3C
3C
3C
3C
3C
ENDCHAR
STARTCHAR eth
ENCODING 240
SWIDTH 500 0
DWIDTH 13 0
BBX 11 19 1 0
BITMAP
3C00
0FC0
3FC0
3F80
0380
1FC0
3FC0
7FC0
71E0
E0E0
E0E0
E0E0
E0E0
E0E0
F0E0
F1E0
7FC0
3F80
1F00
ENDCHAR
STARTCHAR ntilde
ENCODING 241
SWIDTH 500 0
DWIDTH 13 0
BBX 11 19 1 0
BITMAP
38C0
3FC0
7F80
6100
0000
E780
EFC0
FFC0
F1E0
F1E0
F1E0
F1E0
F1E0
F1E0
F1E0
F1E0
F1E0
F1E0
F1E0
ENDCHAR
STARTCHAR ograve
ENCODING 242
SWIDTH 500 0
DWIDTH 13 0
BBX 11 19 1 0
BITMAP
3800
1C00
0E00
0000
0000
1F00
3F80
7FC0
F1E0
E0E0
E0E0
E0E0
E0E0
E0E0
F0E0
F1E0
7FC0
3F80
1F00
ENDCHAR
STARTCHAR oacute
ENCODING 243
SWIDTH 500 0
DWIDTH 13 0
BBX 11 19 1 0
BITMAP
0380
0700
0E00
0000
0000
1F00
3F80
7FC0
F1E0
E0E0
E0E0
E0E0
E0E0
E0E0
F0E0
F1E0
7FC0
3F80
1F00
ENDCHAR
STARTCHAR ocircumflex
ENCODING 244
SWIDTH 500 0
DWIDTH 13 0
BBX 11 19 1 0
BITMAP
0E00
1F00
1B00
3180
0000
1F00
3F80
7FC0
F1E0
E0E0
E0E0
E0E0
E0E0
E0E0
F0E0
F1E0
7FC0
3F80
1F00
ENDCHAR
STARTCHAR otilde
ENCODING 245
SWIDTH 500 0
DWIDTH 13 0
BBX 11 19 1 0
BITMAP
38C0
3FC0
7F80
6100
0000
1F00
3F80
7FC0
F1E0
E0E0
E0E0
E0E0
E0E0
E0E0
F0E0
F1E0
7FC0
3F80
1F00
ENDCHAR
STARTCHAR odieresis
ENCODING 246
SWIDTH 500 0
DWIDTH 13 0
BBX 11 19 1 0
BITMAP
3B80
3B80
3B80
0000
0000
1F00
3F80
7FC0
F1E0
E0E0
E0E0
E0E0
E0E0
E0E0
F0E0
F1E0
7FC0
3F80
1F00
ENDCHAR
STARTCHAR divide
ENCODING 247
SWIDTH 548 0
DWIDTH 14 0
BBX 12 11 1 1
BITMAP
0600
0600
0600
0000
FFF0
FFF0
FFF0
0000
0600
0600
0600
ENDCHAR
STARTCHAR oslash
ENCODING 248
SWIDTH 500 0
DWIDTH 13 0
BBX 11 16 1 -1
BITMAP
0060
1FC0
3FC0
7FC0
F1E0
F3E0
E6E0
E6E0
ECE0
ECE0
F8E0
F9E0
7FC0
7F80
7F00
C000
ENDCHAR
STARTCHAR ugrave
ENCODING 249
SWIDTH 500 0
DWIDTH 13 0
BBX 11 19 1 0
BITMAP
3800
1C00
0E00
0000
0000
F1E0
F1E0
F1E0
F1E0
F1E0
F1E0
F1E0
F1E0
F1E0
F1E0
F1E0
7FE0
7EE0
3CE0
ENDCHAR
STARTCHAR uacute
ENCODING 250
SWIDTH 500 0
DWIDTH 13 0
BBX 11 19 1 0
BITMAP
0380
0700
0E00
0000
0000
F1E0
F1E0
F1E0
F1E0
F1E0
F1E0
F1E0
F1E0
F1E0
F1E0
F1E0
7FE0
7EE0
3CE0
ENDCHAR
STARTCHAR ucircumflex
ENCODING 251
SWIDTH 500 0
DWIDTH 13 0
BBX 11 19 1 0
BITMAP
0E00
1F00
1B00
3B80
0000
F1E0
F1E0
F1E0
F1E0
F1E0
F1E0
F1E0
F1E0
F1E0
F1E0
F1E0
7FE0
7EE0
3CE0
ENDCHAR
STARTCHAR udieresis
ENCODING 252
SWIDTH 500 0
DWIDTH 13 0
BBX 11 19 1 0
BITMAP
3B80
3B80
3B80
0000
0000
F1E0
F1E0
F1E0
F1E0
F1E0
F1E0
F1E0
F1E0
F1E0
F1E0
F1E0
7FE0
7EE0
3CE0
ENDCHAR
STARTCHAR yacute
ENCODING 253
SWIDTH 456 0
DWIDTH 12 0
BBX 12 24 0 -5
BITMAP
03C0
0700
0E00
0000
0000
F0F0
70E0
70E0
70E0
39E0
39C0
39C0
1DC0
1D80
1F80
1F80
0F80
0F00
0F00
0700
0E00
7E00
7C00
7800
ENDCHAR
STARTCHAR thorn
ENCODING 254
SWIDTH 500 0
DWIDTH 13 0
BBX 11 24 1 -5
BITMAP
F000
F000
F000
F000
F000
F780
FFC0
FFC0
F1E0
F1E0
F0E0
F0E0
F0E0
F0E0
F0E0
F1E0
FFC0
FFC0
F780
F000
F000
F000
F000
F000
ENDCHAR
STARTCHAR ydieresis
ENCODING 255
SWIDTH 456 0
DWIDTH 12 0
BBX 12 24 0 -5
BITMAP
39C0
39C0
39C0
0000
0000
F0F0
70E0
70E0
70E0
39E0
39C0
39C0
1DC0
1D80
1F80
1F80
0F80
0F00
0F00
0700
0E00
7E00
7C00
7800
ENDCHAR
STARTCHAR Amacron
ENCODING 256
SWIDTH 591 0
DWIDTH 15 0
BBX 15 22 0 0
BITMAP
0FE0
0FE0
0FE0
0000
03C0
07C0
07C0
06E0
0EE0
0EE0
0EF0
1C70
1C70
1C78
3C38
3838
3FFC
7FFC
7FFC
701E
F01E
E00E
ENDCHAR
STARTCHAR amacron
ENCODING 257
SWIDTH 456 0
DWIDTH 12 0
BBX 12 18 0 0
BITMAP
3F80
3F80
3F80
0000
1F00
3FC0
7FC0
71C0
01C0
1FC0
3FC0
7FC0
71C0
F1C0
F1C0
7FF0
7FF0
3CF0
ENDCHAR
STARTCHAR Abreve
ENCODING 258
SWIDTH 591 0
DWIDTH 15 0
BBX 15 23 0 0
BITMAP
0C60
07E0
0380
0000
0000
03C0
07C0
07C0
06E0
0EE0
0EE0
0EF0
1C70
1C70
1C78
3C38
3838
3FFC
7FFC
7FFC
701E
F01E
E00E
ENDCHAR
STARTCHAR abreve
ENCODING 259
SWIDTH 456 0
DWIDTH 12 0
BBX 12 19 0 0
BITMAP
3180
1F80
0F00
0000
0000
1F00
3FC0
7FC0
71C0
01C0
1FC0
3FC0
7FC0
71C0
F1C0
F1C0
7FF0
7FF0
3CF0
ENDCHAR
STARTCHAR Aogonek
ENCODING 260
SWIDTH 591 0
DWIDTH 15 0
BBX 16 23 0 -5
BITMAP
03C0
07C0
07C0
06E0
0EE0
0EE0
0EF0
1C70
1C70
1C78
3C38
3838
3FFC
7FFC
7FFC
701E
F01E
E00E
0006
000E
000E
000F
0007
ENDCHAR
STARTCHAR aogonek
ENCODING 261
SWIDTH 456 0
DWIDTH 12 0
BBX 13 19 0 -5
BITMAP
1F00
3FC0
7FC0
71C0
01C0
07C0
3FC0
7FC0
79C0
F1C0
F1C0
FFF0
7FF0
3CF0
0060
00E0
00E0
00F8
0078
ENDCHAR
STARTCHAR Cacute
ENCODING 262
SWIDTH 591 0
DWIDTH 15 0
BBX 14 23 1 0
BITMAP
01E0
0380
0700
0000
0000
0FC0
3FF0
3FF0
7878
7038
F038
E03C
E000
E000
E000
E000
E03C
F038
F038
7878
7FF0
3FF0
0FC0
ENDCHAR
STARTCHAR cacute
ENCODING 263
SWIDTH 456 0
DWIDTH 12 0
BBX 10 19 1 0
BITMAP
0780
0E00
1C00
0000
0000
1F00
7F80
7F80
F3C0
E1C0
E000
E000
E000
E000
E1C0
F1C0
7F80
7F80
1F00
ENDCHAR
STARTCHAR Ccircumflex
ENCODING 264
SWIDTH 591 0
DWIDTH 15 0
BBX 14 24 1 0
BITMAP
0300
0780
0FC0
1CC0
0000
0000
0FC0
3FF0
3FF0
7878
7038
F038
E03C
E000
E000
E000
E000
E03C
F038
F038
7878
7FF0
3FF0
0FC0
ENDCHAR
STARTCHAR ccircumflex
ENCODING 265
SWIDTH 456 0
DWIDTH 12 0
BBX 10 19 1 0
BITMAP
0E00
1E00
3B00
3380
0000
1F00
7F80
7F80
F3C0
E1C0
E000
E000
E000
E000
E1C0
F1C0
7F80
7F80
1F00
ENDCHAR
STARTCHAR Cdotaccent
ENCODING 266
SWIDTH 591 0
DWIDTH 15 0
BBX 14 23 1 0
BITMAP
0300
0300
0300
0000
0000
0FC0
3FF0
3FF0
7878
7038
F038
E03C
E000
E000
E000
E000
E03C
F038
F038
7878
7FF0
3FF0
0FC0
ENDCHAR
STARTCHAR cdotaccent
ENCODING 267
SWIDTH 456 0
DWIDTH 12 0
BBX 10 19 1 0
BITMAP
0E00
0E00
0E00
0000
0000
1F00
7F80
7F80
F3C0
E1C0
E000
E000
E000
E000
E1C0
F1C0
7F80
7F80
1F00
ENDCHAR
STARTCHAR Ccaron
ENCODING 268
SWIDTH 591 0
DWIDTH 15 0
BBX 14 24 1 0
BITMAP
1CC0
0FC0
0780
0780
0000
0000
0FC0
3FF0
3FF0
7878
7038
F038
E03C
E000
E000
E000
E000
E03C
F038
F038
7878
7FF0
3FF0
0FC0
ENDCHAR
STARTCHAR ccaron
ENCODING 269
SWIDTH 456 0
DWIDTH 12 0
BBX 10 19 1 0
BITMAP
3380
1F00
1E00
0E00
0000
1F00
7F80
7F80
F3C0
E1C0
E000
E000
E000
E1C0
E1C0
F1C0
7F80
7F80
1F00
ENDCHAR
STARTCHAR Dcaron
ENCODING 270
SWIDTH 591 0
DWIDTH 15 0
BBX 13 23 2 0
BITMAP
7700
3600
3E00
1C00
0000
FF00
FFC0
FFE0
E1E0
E0F0
E070
E070
E070
E078
E070
E070
E070
E070
E0F0
E1E0
FFE0
FFC0
FF00
ENDCHAR
STARTCHAR dcaron
ENCODING 271
SWIDTH 588 0
DWIDTH 15 0
BBX 15 19 1 0
BITMAP
01E0
01FE
01FE
01FE
01FE
3DE6
7FEC
7FEC
F1F8
E1E0
E1E0
E1E0
E1E0
E1E0
E1E0
F1E0
7FE0
7EE0
3CE0
ENDCHAR
STARTCHAR Dcroat
ENCODING 272
SWIDTH 591 0
DWIDTH 15 0
BBX 15 18 0 0
BITMAP
3FC0
3FF0
3FF8
3878
383C
381C
381C
FF1C
FF1E
FF1C
381C
381C
381C
383C
3878
3FF8
3FF0
3FC0
ENDCHAR
STARTCHAR dcroat
ENCODING 273
SWIDTH 503 0
DWIDTH 13 0
BBX 12 19 1 0
BITMAP
01E0
0FF0
0FF0
0FF0
01E0
3DE0
7FE0
7FE0
F1E0
E1E0
E1E0
E1E0
E1E0
E1E0
E1E0
F1E0
7FE0
7EE0
3CE0
ENDCHAR
STARTCHAR Emacron
ENCODING 274
SWIDTH 546 0
DWIDTH 14 0
BBX 11 22 2 0
BITMAP
3F00
3F00
3F00
0000
FFE0
FFE0
FFE0
E000
E000
E000
E000
FFC0
FFC0
FFC0
E000
E000
E000
E000
E000
FFE0
FFE0
FFE0
ENDCHAR
STARTCHAR emacron
ENCODING 275
SWIDTH 456 0
DWIDTH 12 0
BBX 10 18 1 0
BITMAP
3F00
3F00
3F00
0000
1E00
7F80
7F80
E3C0
E1C0
FFC0
FFC0
FFC0
E000
E1C0
F1C0
7F80
7F80
1F00
ENDCHAR
STARTCHAR Ebreve
ENCODING 276
SWIDTH 546 0
DWIDTH 14 0
BBX 11 23 2 0
BITMAP
3380
3F00
1E00
0000
0000
FFE0
FFE0
FFE0
E000
E000
E000
E000
FFC0
FFC0
FFC0
E000
E000
E000
E000
E000
FFE0
FFE0
FFE0
ENDCHAR
STARTCHAR ebreve
ENCODING 277
SWIDTH 456 0
DWIDTH 12 0
BBX 10 19 1 0
BITMAP
7300
3F00
1E00
0000
0000
1E00
7F80
7F80
E3C0
E1C0
FFC0
FFC0
E000
E000
E1C0
F3C0
7F80
7F80
1E00
ENDCHAR
STARTCHAR Edotaccent
ENCODING 278
SWIDTH 546 0
DWIDTH 14 0
BBX 11 23 2 0
BITMAP
0E00
0E00
0E00
0000
0000
FFE0
FFE0
FFE0
E000
E000
E000
E000
FFC0
FFC0
FFC0
E000
E000
E000
E000
E000
FFE0
FFE0
FFE0
ENDCHAR
STARTCHAR edotaccent
ENCODING 279
SWIDTH 456 0
DWIDTH 12 0
BBX 10 19 1 0
BITMAP
0C00
0C00
0C00
0000
0000
1E00
7F80
7F80
E3C0
E1C0
FFC0
FFC0
FFC0
E000
E1C0
F1C0
7F80
7F80
1F00
ENDCHAR
STARTCHAR Eogonek
ENCODING 280
SWIDTH 546 0
DWIDTH 14 0
BBX 12 23 2 -5
BITMAP
FFE0
FFE0
FFE0
E000
E000
E000
E000
FFC0
FFC0
FFC0
E000
E000
E000
E000
E000
FFE0
FFE0
FFE0
00E0
00C0
00C0
00F0
0070
ENDCHAR
STARTCHAR eogonek
ENCODING 281
SWIDTH 456 0
DWIDTH 12 0
BBX 10 19 1 -5
BITMAP
1E00
7F00
7F80
F380
E1C0
E1C0
FFC0
FFC0
FFC0
E1C0
E1C0
7FC0
7F80
3F00
0600
0E00
0E00
0F00
0700
ENDCHAR
STARTCHAR Ecaron
ENCODING 282
SWIDTH 546 0
DWIDTH 14 0
BBX 11 23 2 0
BITMAP
3380
1F00
1E00
0C00
0000
FFE0
FFE0
FFE0
E000
E000
E000
E000
FFC0
FFC0
FFC0
E000
E000
E000
E000
E000
FFE0
FFE0
FFE0
ENDCHAR
STARTCHAR ecaron
ENCODING 283
SWIDTH 456 0
DWIDTH 12 0
BBX 10 19 1 0
BITMAP
7300
3F00
1E00
1E00
0000
1E00
7F80
7F80
E3C0
E1C0
FFC0
FFC0
FFC0
E000
E1C0
F1C0
7F80
7F80
1F00
ENDCHAR
STARTCHAR Gcircumflex
ENCODING 284
SWIDTH 638 0
DWIDTH 17 0
BBX 14 24 1 0
BITMAP
0380
0780
07C0
0CE0
0000
0000
0FC0
1FF0
3FF8
787C
703C
F01C
E000
E000
E1FC
E1FC
E1FC
E01C
F01C
F03C
787C
7FFC
3FEC
0F8C
ENDCHAR
STARTCHAR gcircumflex
ENCODING 285
SWIDTH 500 0
DWIDTH 13 0
BBX 13 24 0 -5
BITMAP
0700
0F80
0D80
18D8
0030
0FF0
1FE0
3DE0
38E0
78F0
78E0
38E0
3FE0
1FC0
3F00
7000
7FE0
3FF0
7FF8
7078
F038
FFF8
7FF0
3FE0
ENDCHAR
STARTCHAR Gbreve
ENCODING 286
SWIDTH 638 0
DWIDTH 17 0
BBX 14 24 1 0
BITMAP
0C60
0CE0
0FC0
0380
0000
0000
0FC0
1FF0
3FF8
783C
703C
F01C
E000
E000
E1FC
E1FC
E1FC
E01C
F01C
F03C
787C
7FFC
3FEC
0F8C
ENDCHAR
STARTCHAR gbreve
ENCODING 287
SWIDTH 500 0
DWIDTH 13 0
BBX 13 24 0 -5
BITMAP
18C0
0FC0
0700
0038
0030
0FF0
3FE0
3FE0
38E0
78F0
78E0
38E0
3FE0
1FC0
3800
7000
7FE0
3FF0
3FF8
7078
F038
FFF8
7FF0
3FE0
ENDCHAR
STARTCHAR Gdotaccent
ENCODING 288
SWIDTH 638 0
DWIDTH 17 0
BBX 14 23 1 0
BITMAP
0380
0380
0380
0000
0000
0FC0
1FF0
3FF8
783C
703C
F01C
E000
E000
E1FC
E1FC
E1FC
E01C
F01C
F03C
787C
7FFC
3FEC
0F8C
ENDCHAR
STARTCHAR gdotaccent
ENCODING 289
SWIDTH 500 0
DWIDTH 13 0
BBX 13 24 0 -5
BITMAP
0700
0700
0738
0038
0070
0FF0
1FE0
3FE0
38E0
78F0
78E0
38E0
3FE0
1FC0
3F00
7000
7FE0
3FF0
3FF8
7078
F038
FFF8
7FF0
3FE0
ENDCHAR
STARTCHAR Gcommaaccent
ENCODING 290
SWIDTH 638 0
DWIDTH 17 0
BBX 14 25 1 -7
BITMAP
0FC0
1FF0
3FF8
783C
703C
F01C
E01C
E000
E000
E1FC
E1FC
E1FC
F01C
F03C
783C
7FFC
3FEC
0F8C
0000
0000
0780
0780
0780
0300
0300
ENDCHAR
STARTCHAR gcommaaccent
ENCODING 291
SWIDTH 500 0
DWIDTH 13 0
BBX 13 26 0 -5
BITMAP
0200
0600
0700
0700
0738
0038
0070
0FF0
1FE0
3FE0
38E0
78F0
78E0
38E0
3FE0
1FC0
3F00
7000
7FE0
3FF0
3FF8
7078
F038
FFF8
7FF0
3FE0
ENDCHAR
STARTCHAR Hcircumflex
ENCODING 292
SWIDTH 591 0
DWIDTH 15 0
BBX 12 23 2 0
BITMAP
0E00
0F00
1B00
3980
0000
E0F0
E0F0
E0F0
E0F0
E0F0
E0F0
E0F0
FFF0
FFF0
FFF0
E0F0
E0F0
E0F0
E0F0
E0F0
E0F0
E0F0
E0F0
ENDCHAR
STARTCHAR hcircumflex
ENCODING 293
SWIDTH 500 0
DWIDTH 13 0
BBX 13 23 -1 0
BITMAP
3C00
3C00
7E00
E600
3C00
3C00
3C00
3C00
3C00
3DE0
3FF0
3FF0
3C78
3C78
3C78
3C78
3C78
3C78
3C78
3C78
3C78
3C78
3C78
ENDCHAR
STARTCHAR Hbar
ENCODING 294
SWIDTH 591 0
DWIDTH 15 0
BBX 15 18 0 0
BITMAP
383C
383C
383C
FFFE
FFFE
FFFE
383C
383C
3FFC
3FFC
3FFC
383C
383C
383C
383C
383C
383C
383C
ENDCHAR
STARTCHAR hbar
ENCODING 295
SWIDTH 500 0
DWIDTH 13 0
BBX 12 19 0 0
BITMAP
7800
FF00
FF00
FF00
7800
7BC0
7FE0
7FE0
78F0
78F0
78F0
78F0
78F0
78F0
78F0
78F0
78F0
78F0
78F0
ENDCHAR
STARTCHAR Itilde
ENCODING 296
SWIDTH 228 0
DWIDTH 6 0
BBX 8 23 -1 0
BITMAP
73
FF
FF
84
00
3C
3C
3C
3C
3C
3C
3C
3C
3C
3C
3C
3C
3C
3C
3C
3C
3C
3C
ENDCHAR
STARTCHAR itilde
ENCODING 297
SWIDTH 228 0
DWIDTH 6 0
BBX 8 19 -1 0
BITMAP
73
FF
FF
84
00
3C
3C
3C
3C
3C
3C
3C
3C
3C
3C
3C
3C
3C
3C
ENDCHAR
STARTCHAR Imacron
ENCODING 298
SWIDTH 228 0
DWIDTH 6 0
BBX 6 22 0 0
BITMAP
FC
FC
FC
00
78
78
78
78
78
78
78
78
78
78
78
78
78
78
78
78
78
78
ENDCHAR
STARTCHAR imacron
ENCODING 299
SWIDTH 228 0
DWIDTH 6 0
BBX 6 18 0 0
BITMAP
FC
FC
FC
00
78
78
78
78
78
78
78
78
78
78
78
78
78
78
ENDCHAR
STARTCHAR Ibreve
ENCODING 300
SWIDTH 228 0
DWIDTH 6 0
BBX 7 23 -1 0
BITMAP
E6
7E
3C
00
00
3C
3C
3C
3C
3C
3C
3C
3C
3C
3C
3C
3C
3C
3C
3C
3C
3C
3C
ENDCHAR
STARTCHAR ibreve
ENCODING 301
SWIDTH 228 0
DWIDTH 6 0
BBX 7 19 -1 0
BITMAP
E6
7E
3C
00
00
3C
3C
3C
3C
3C
3C
3C
3C
3C
3C
3C
3C
3C
3C
ENDCHAR
STARTCHAR Iogonek
ENCODING 302
SWIDTH 228 0
DWIDTH 6 0
BBX 5 23 1 -5
BITMAP
F0
F0
F0
F0
F0
F0
F0
F0
F0
F0
F0
F0
F0
F0
F0
F0
F0
F0
60
E0
E0
F8
78
ENDCHAR
STARTCHAR iogonek
ENCODING 303
SWIDTH 228 0
DWIDTH 6 0
BBX 4 24 1 -5
BITMAP
60
60
60
00
00
F0
F0
F0
F0
F0
F0
F0
F0
F0
F0
F0
F0
F0
F0
60
E0
E0
F0
70
ENDCHAR
STARTCHAR Idotaccent
ENCODING 304
SWIDTH 228 0
DWIDTH 6 0
BBX 4 23 1 0
BITMAP
60
60
60
00
00
F0
F0
F0
F0
F0
F0
F0
F0
F0
F0
F0
F0
F0
F0
F0
F0
F0
F0
ENDCHAR
STARTCHAR dotlessi
ENCODING 305
SWIDTH 228 0
DWIDTH 6 0
BBX 4 14 1 0
BITMAP
F0
F0
F0
F0
F0
F0
F0
F0
F0
F0
F0
F0
F0
F0
ENDCHAR
STARTCHAR IJ
ENCODING 306
SWIDTH 684 0
DWIDTH 18 0
BBX 15 18 1 0
BITMAP
F00E
F00E
F00E
F00E
F00E
F00E
F00E
F00E
F00E
F00E
F00E
F00E
F70E
F70E
F78E
F3FE
F3FC
F1F8
ENDCHAR
STARTCHAR ij
ENCODING 307
SWIDTH 456 0
DWIDTH 12 0
BBX 9 24 1 -5
BITMAP
F380
F380
F380
0000
0000
F380
F380
F380
F380
F380
F380
F380
F380
F380
F380
F380
F380
F380
F380
0380
0380
0F80
0F80
0F00
ENDCHAR
STARTCHAR Jcircumflex
ENCODING 308
SWIDTH 456 0
DWIDTH 12 0
BBX 12 24 0 0
BITMAP
01E0
01E0
03F0
0730
0000
0000
01C0
01C0
01C0
01C0
01C0
01C0
01C0
01C0
01C0
01C0
01C0
01C0
F1C0
F1C0
F1C0
7FC0
7F80
1F00
ENDCHAR
STARTCHAR jcircumflex
ENCODING 309
SWIDTH 228 0
DWIDTH 6 0
BBX 8 24 -1 -5
BITMAP
3C
3C
7E
67
00
3C
3C
3C
3C
3C
3C
3C
3C
3C
3C
3C
3C
3C
3C
3C
3C
F8
F8
F0
ENDCHAR
STARTCHAR Kcommaaccent
ENCODING 310
SWIDTH 591 0
DWIDTH 15 0
BBX 13 25 2 -7
BITMAP
E078
E0F0
E0E0
E1E0
E3C0
E380
E780
EF00
FF00
FF80
FB80
FBC0
F1C0
E1E0
E0F0
E0F0
E078
E078
0000
0000
0E00
0E00
0E00
0600
0C00
ENDCHAR
STARTCHAR kcommaaccent
ENCODING 311
SWIDTH 456 0
DWIDTH 12 0
BBX 11 26 1 -7
BITMAP
F000
F000
F000
F000
F000
F1E0
F3C0
F380
F700
FF00
FE00
FE00
FF00
F700
F780
F380
F3C0
F1C0
F1E0
0000
0000
1E00
1E00
1E00
0C00
0C00
ENDCHAR
STARTCHAR kgreenlandic
ENCODING 312
SWIDTH 457 0
DWIDTH 12 0
BBX 11 14 1 0
BITMAP
F1E0
F3C0
F380
F700
FF00
FE00
FE00
FF00
F700
F780
F380
F3C0
F1C0
F1E0
ENDCHAR
STARTCHAR Lacute
ENCODING 313
SWIDTH 500 0
DWIDTH 13 0
BBX 10 23 2 0
BITMAP
7800
7000
E000
0000
0000
E000
E000
E000
E000
E000
E000
E000
E000
E000
E000
E000
E000
E000
E000
E000
FFC0
FFC0
FFC0
ENDCHAR
STARTCHAR lacute
ENCODING 314
SWIDTH 228 0
DWIDTH 6 0
BBX 6 23 1 0
BITMAP
3C
70
E0
00
F0
F0
F0
F0
F0
F0
F0
F0
F0
F0
F0
F0
F0
F0
F0
F0
F0
F0
F0
ENDCHAR
STARTCHAR Lcommaaccent
ENCODING 315
SWIDTH 500 0
DWIDTH 13 0
BBX 10 25 2 -7
BITMAP
E000
E000
E000
E000
E000
E000
E000
E000
E000
E000
E000
E000
E000
E000
E000
FFC0
FFC0
FFC0
0000
0000
1C00
1C00
1C00
0C00
1800
ENDCHAR
STARTCHAR lcommaaccent
ENCODING 316
SWIDTH 228 0
DWIDTH 6 0
BBX 4 26 1 -7
BITMAP
F0
F0
F0
F0
F0
F0
F0
F0
F0
F0
F0
F0
F0
F0
F0
F0
F0
F0
F0
00
00
F0
F0
F0
60
60
ENDCHAR
STARTCHAR Lcaron
ENCODING 317
SWIDTH 500 0
DWIDTH 13 0
BBX 10 18 2 0
BITMAP
E1C0
E1C0
E1C0
E1C0
E0C0
E0C0
E180
E180
E000
E000
E000
E000
E000
E000
E000
FFC0
FFC0
FFC0
ENDCHAR
STARTCHAR lcaron
ENCODING 318
SWIDTH 315 0
DWIDTH 8 0
BBX 8 19 1 0
BITMAP
F0
F7
F7
F7
F7
F3
F3
F6
F6
F0
F0
F0
F0
F0
F0
F0
F0
F0
F0
ENDCHAR
STARTCHAR Ldot
ENCODING 319
SWIDTH 500 0
DWIDTH 13 0
BBX 10 18 2 0
BITMAP
E000
E000
E000
E000
E380
E380
E380
E000
E000
E000
E000
E000
E000
E000
E000
FFC0
FFC0
FFC0
ENDCHAR
STARTCHAR ldot
ENCODING 320
SWIDTH 333 0
DWIDTH 9 0
BBX 8 19 1 0
BITMAP
F0
F0
F0
F0
F0
F0
F0
F0
F0
F7
F7
F7
F0
F0
F0
F0
F0
F0
F0
ENDCHAR
STARTCHAR Lslash
ENCODING 321
SWIDTH 500 0
DWIDTH 13 0
BBX 12 18 0 0
BITMAP
3800
3800
3800
3800
3900
3B00
3F00
3E00
3C00
3800
7800
F800
B800
B800
3800
3FF0
3FF0
3FF0
ENDCHAR
STARTCHAR lslash
ENCODING 322
SWIDTH 228 0
DWIDTH 6 0
BBX 7 19 0 0
BITMAP
78
78
78
78
78
78
7A
7E
7C
78
78
F8
F8
F8
F8
78
78
78
78
ENDCHAR
STARTCHAR Nacute
ENCODING 323
SWIDTH 591 0
DWIDTH 15 0
BBX 12 23 2 0
BITMAP
0380
0700
0E00
0000
0000
E070
E070
F070
F070
F870
FC70
FC70
DE70
EE70
EF70
E770
E7F0
E3F0
E3F0
E1F0
E1F0
E0F0
E070
ENDCHAR
STARTCHAR nacute
ENCODING 324
SWIDTH 500 0
DWIDTH 13 0
BBX 11 19 1 0
BITMAP
0380
0700
0E00
0000
0000
E780
EFC0
FFC0
F1E0
F1E0
F1E0
F1E0
F1E0
F1E0
F1E0
F1E0
F1E0
F1E0
F1E0
ENDCHAR
STARTCHAR Ncommaaccent
ENCODING 325
SWIDTH 591 0
DWIDTH 15 0
BBX 12 25 2 -7
BITMAP
E070
E070
F070
F070
F870
FC70
FC70
DE70
EE70
EF70
E770
E7F0
E3F0
E3F0
E1F0
E1F0
E0F0
E070
0000
0000
0E00
0E00
0E00
0600
0C00
ENDCHAR
STARTCHAR ncommaaccent
ENCODING 326
SWIDTH 500 0
DWIDTH 13 0
BBX 11 21 1 -7
BITMAP
E780
EFC0
FFC0
F1E0
F1E0
F1E0
F1E0
F1E0
F1E0
F1E0
F1E0
F1E0
F1E0
F1E0
0000
0000
0E00
0E00
0E00
0600
0C00
ENDCHAR
STARTCHAR Ncaron
ENCODING 327
SWIDTH 591 0
DWIDTH 15 0
BBX 12 23 2 0
BITMAP
3980
1B00
0F00
0E00
0000
E070
E070
F070
F070
F870
FC70
FC70
DE70
EE70
EF70
E770
E7F0
E3F0
E3F0
E1F0
E1F0
E0F0
E070
ENDCHAR
STARTCHAR ncaron
ENCODING 328
SWIDTH 500 0
DWIDTH 13 0
BBX 11 19 1 0
BITMAP
3B80
1B00
1F00
0E00
0000
E780
EFC0
FFC0
F1E0
F1E0
F1E0
F1E0
F1E0
F1E0
F1E0
F1E0
F1E0
F1E0
F1E0
ENDCHAR
STARTCHAR napostrophe
ENCODING 329
SWIDTH 675 0
DWIDTH 18 0
BBX 14 18 2 0
BITMAP
E000
E000
E000
6000
CEF8
0FF8
0FFC
0F1C
0E1C
0E1C
0E1C
0E1C
0E1C
0E1C
0E1C
0E1C
0E1C
0E1C
ENDCHAR
STARTCHAR Eng
ENCODING 330
SWIDTH 592 0
DWIDTH 15 0
BBX 12 23 2 -5
BITMAP
E070
E070
F070
F070
F870
FC70
FC70
DE70
EE70
EF70
E770
E7F0
E3F0
E3F0
E1F0
E1F0
E0F0
E070
0070
0070
03F0
03E0
03C0
ENDCHAR
STARTCHAR eng
ENCODING 331
SWIDTH 500 0
DWIDTH 13 0
BBX 11 19 1 -5
BITMAP
E780
EFC0
FFC0
F1E0
F1E0
F1E0
F1E0
F1E0
F1E0
F1E0
F1E0
F1E0
F1E0
F1E0
01E0
01E0
07C0
07C0
0780
ENDCHAR
STARTCHAR Omacron
ENCODING 332
SWIDTH 638 0
DWIDTH 17 0
BBX 15 23 1 0
BITMAP
0FE0
0FE0
0FE0
0000
0000
0FC0
1FF0
3FF8
783C
703C
F01C
E01E
E01E
E01E
E01E
E01E
E01E
F01C
703C
783C
3FF8
1FF0
0FC0
ENDCHAR
STARTCHAR omacron
ENCODING 333
SWIDTH 500 0
DWIDTH 13 0
BBX 11 18 1 0
BITMAP
3F80
3F80
3F80
0000
1F00
3F80
7FC0
F1E0
E0E0
E0E0
E0E0
E0E0
E0E0
F0E0
F1E0
7FC0
3F80
1F00
ENDCHAR
STARTCHAR Obreve
ENCODING 334
SWIDTH 638 0
DWIDTH 17 0
BBX 15 24 1 0
BITMAP
0C60
0CE0
0FC0
0380
0000
0000
0FC0
1FF0
3FF8
783C
703C
F01C
E01E
E01E
E01E
E01E
E01E
E01E
F01C
703C
787C
3FF8
1FF0
0FC0
ENDCHAR
STARTCHAR obreve
ENCODING 335
SWIDTH 500 0
DWIDTH 13 0
BBX 11 19 1 0
BITMAP
3180
1F80
0E00
0000
0000
1F00
3F80
7FC0
F1E0
E0E0
E0E0
E0E0
E0E0
E0E0
F0E0
F1E0
7FC0
3F80
1F00
ENDCHAR
STARTCHAR Ohungarumlaut
ENCODING 336
SWIDTH 638 0
DWIDTH 17 0
BBX 15 23 1 0
BITMAP
03F0
0760
0EC0
0000
0000
0FC0
1FF0
3FF8
783C
703C
F01C
E01E
E01E
E01E
E01E
E01E
E01E
F01C
703C
783C
3FF8
1FF0
0FC0
ENDCHAR
STARTCHAR ohungarumlaut
ENCODING 337
SWIDTH 500 0
DWIDTH 13 0
BBX 11 19 1 0
BITMAP
0EC0
1D80
1B80
0000
0000
1F00
3F80
7FC0
F1E0
E0E0
E0E0
E0E0
E0E0
E0E0
F0E0
F1E0
7FC0
3F80
1F00
ENDCHAR
STARTCHAR OE
ENCODING 338
SWIDTH 819 0
DWIDTH 21 0
BBX 20 18 1 0
BITMAP
1F3FE0
3FBFE0
7FFFE0
70F800
F07800
E07800
E07800
E03FC0
E03FC0
E03FC0
E03800
E07800
E07800
F07800
70F800
7FFFF0
3FFFF0
1F3FF0
ENDCHAR
STARTCHAR oe
ENCODING 339
SWIDTH 773 0
DWIDTH 20 0
BBX 18 14 1 0
BITMAP
1F1E00
3FBF80
7FFF80
F1E3C0
E0E1C0
E0FFC0
E0FFC0
E0FFC0
E0E000
F0E1C0
F1F3C0
7FFF80
3FBF80
1F1E00
ENDCHAR
STARTCHAR Racute
ENCODING 340
SWIDTH 591 0
DWIDTH 15 0
BBX 13 23 2 0
BITMAP
0380
0700
0E00
0000
0000
FFC0
FFE0
FFF0
E0F0
E070
E070
E070
E0F0
FFE0
FFC0
FFC0
E1C0
E1E0
E1E0
E0E0
E0F0
E070
E078
ENDCHAR
STARTCHAR racute
ENCODING 341
SWIDTH 318 0
DWIDTH 8 0
BBX 7 19 1 0
BITMAP
38
70
E0
00
00
EE
EE
FE
F0
F0
F0
F0
F0
F0
F0
F0
F0
F0
F0
ENDCHAR
STARTCHAR Rcommaaccent
ENCODING 342
SWIDTH 591 0
DWIDTH 15 0
BBX 13 25 2 -7
BITMAP
FFC0
FFE0
FFF0
E0F0
E070
E070
E070
E0F0
FFE0
FFC0
FFC0
E1C0
E1E0
E1E0
E0E0
E0F0
E070
E078
0000
0000
0E00
0E00
0E00
0600
0C00
ENDCHAR
STARTCHAR rcommaaccent
ENCODING 343
SWIDTH 318 0
DWIDTH 8 0
BBX 7 21 1 -7
BITMAP
EE
EE
FE
F0
F0
F0
F0
F0
F0
F0
F0
F0
F0
F0
00
00
70
70
70
20
60
ENDCHAR
STARTCHAR Rcaron
ENCODING 344
SWIDTH 591 0
DWIDTH 15 0
BBX 13 23 2 0
BITMAP
3980
1F00
0F00
0E00
0000
FFC0
FFE0
FFF0
E0F0
E070
E070
E070
E0F0
FFE0
FFC0
FFC0
E1C0
E1E0
E1E0
E0E0
E0F0
E070
E078
ENDCHAR
STARTCHAR rcaron
ENCODING 345
SWIDTH 318 0
DWIDTH 8 0
BBX 9 19 -1 0
BITMAP
E600
7E00
3C00
3800
0000
3B80
3B80
3F80
3C00
3C00
3C00
3C00
3C00
3C00
3C00
3C00
3C00
3C00
3C00
ENDCHAR
STARTCHAR Sacute
ENCODING 346
SWIDTH 546 0
DWIDTH 14 0
BBX 12 23 1 0
BITMAP
03C0
0700
0E00
0000
0000
1F80
3FE0
7FE0
F0F0
F0F0
F000
F800
7F00
3FC0
1FE0
03F0
00F0
E070
E070
F0F0
7FE0
7FE0
1F80
ENDCHAR
STARTCHAR sacute
ENCODING 347
SWIDTH 456 0
DWIDTH 12 0
BBX 10 19 1 0
BITMAP
0780
0E00
1C00
0000
0000
3E00
7F80
FF80
E3C0
E000
F800
7F00
3F80
03C0
E1C0
E1C0
FFC0
7F80
3F00
ENDCHAR
STARTCHAR Scircumflex
ENCODING 348
SWIDTH 546 0
DWIDTH 14 0
BBX 12 24 1 0
BITMAP
0600
0F00
0F80
19C0
0000
0000
1F80
3FC0
7FE0
F0F0
F0F0
F0F0
F800
7F00
3FC0
1FE0
03F0
00F0
E070
E070
F0F0
7FF0
7FE0
1F80
ENDCHAR
STARTCHAR scircumflex
ENCODING 349
SWIDTH 456 0
DWIDTH 12 0
BBX 10 19 1 0
BITMAP
1E00
1E00
3F00
7300
0000
3E00
7F80
FF80
E3C0
E000
FC00
7F00
3F80
03C0
E1C0
E1C0
FFC0
7F80
3F00
ENDCHAR
STARTCHAR Scedilla
ENCODING 350
SWIDTH 546 0
DWIDTH 14 0
BBX 12 23 1 -5
BITMAP
1F80
3FC0
7FE0
F0F0
F0F0
F000
F800
7F00
7FC0
3FE0
07F0
01F0
00F0
E070
F070
F0F0
7FE0
1F80
0600
0700
0780
0380
0F00
ENDCHAR
STARTCHAR scedilla
ENCODING 351
SWIDTH 456 0
DWIDTH 12 0
BBX 10 19 1 -5
BITMAP
3E00
7F80
FF80
E3C0
E000
F800
7F00
3F80
0FC0
03C0
E1C0
F3C0
7F80
3F00
0800
1E00
0600
0600
3C00
ENDCHAR
STARTCHAR Scaron
ENCODING 352
SWIDTH 546 0
DWIDTH 14 0
BBX 12 24 1 0
BITMAP
19C0
1F80
0F00
0700
0000
0000
1F80
3FE0
7FE0
F0F0
F0F0
F000
F800
7F00
3FC0
1FE0
03F0
00F0
E070
E070
F0F0
7FE0
7FE0
1F80
ENDCHAR
STARTCHAR scaron
ENCODING 353
SWIDTH 456 0
DWIDTH 12 0
BBX 10 19 1 0
BITMAP
7300
3F00
1E00
0C00
0000
3F00
7F80
FF80
E3C0
E000
F800
7F00
3F80
03C0
E1C0
E1C0
FFC0
7F80
3F00
ENDCHAR
STARTCHAR Tcommaaccent
ENCODING 354
SWIDTH 500 0
DWIDTH 13 0
BBX 13 25 0 -7
BITMAP
FFF8
FFF8
FFF8
0700
0700
0700
0700
0700
0700
0700
0700
0700
0700
0700
0700
0700
0700
0700
0000
0000
0700
0700
0700
0300
0600
ENDCHAR
STARTCHAR tcommaaccent
ENCODING 355
SWIDTH 272 0
DWIDTH 7 0
BBX 7 25 0 -7
BITMAP
38
38
38
38
FE
FE
FE
38
38
38
38
38
38
38
38
3E
3E
1E
00
00
38
38
38
18
30
ENDCHAR
STARTCHAR Tcaron
ENCODING 356
SWIDTH 500 0
DWIDTH 13 0
BBX 13 23 0 0
BITMAP
1DC0
0D80
0700
0700
0000
FFF8
FFF8
FFF8
0700
0700
0700
0700
0700
0700
0700
0700
0700
0700
0700
0700
0700
0700
0700
ENDCHAR
STARTCHAR tcaron
ENCODING 357
SWIDTH 393 0
DWIDTH 10 0
BBX 11 18 0 0
BITMAP
38E0
38E0
38E0
38E0
FE60
FE60
FEC0
3800
3800
3800
3800
3800
3800
3800
3800
3E00
3E00
1E00
ENDCHAR
STARTCHAR Tbar
ENCODING 358
SWIDTH 500 0
DWIDTH 13 0
BBX 13 18 0 0
BITMAP
FFF8
FFF8
FFF8
0700
0700
0700
0700
3FE0
3FE0
3FE0
0700
0700
0700
0700
0700
0700
0700
0700
ENDCHAR
STARTCHAR tbar
ENCODING 359
SWIDTH 272 0
DWIDTH 7 0
BBX 7 18 0 0
BITMAP
38
38
38
38
FE
FE
FE
38
FE
FE
FE
38
38
38
38
3E
3E
1E
ENDCHAR
STARTCHAR Utilde
ENCODING 360
SWIDTH 591 0
DWIDTH 15 0
BBX 12 24 2 0
BITMAP
18C0
3FC0
3FC0
6380
0000
0000
E0F0
E0F0
E0F0
E0F0
E0F0
E0F0
E0F0
E0F0
E0F0
E0F0
E0F0
E0F0
E0F0
E0F0
F0E0
FFE0
7FC0
1F80
ENDCHAR
STARTCHAR utilde
ENCODING 361
SWIDTH 500 0
DWIDTH 13 0
BBX 11 19 1 0
BITMAP
38C0
3FC0
7F80
6100
0000
F1E0
F1E0
F1E0
F1E0
F1E0
F1E0
F1E0
F1E0
F1E0
F1E0
F1E0
7FE0
7EE0
3CE0
ENDCHAR
STARTCHAR Umacron
ENCODING 362
SWIDTH 591 0
DWIDTH 15 0
BBX 12 23 2 0
BITMAP
3F80
3F80
3F80
0000
0000
E0F0
E0F0
E0F0
E0F0
E0F0
E0F0
E0F0
E0F0
E0F0
E0F0
E0F0
E0F0
E0F0
E0F0
F0E0
FFE0
7FC0
1F80
ENDCHAR
STARTCHAR umacron
ENCODING 363
SWIDTH 500 0
DWIDTH 13 0
BBX 11 18 1 0
BITMAP
3F80
3F80
3F80
0000
F1E0
F1E0
F1E0
F1E0
F1E0
F1E0
F1E0
F1E0
F1E0
F1E0
F1E0
7FE0
7EE0
3CE0
ENDCHAR
STARTCHAR Ubreve
ENCODING 364
SWIDTH 591 0
DWIDTH 15 0
BBX 12 24 2 0
BITMAP
3180
3980
1F00
0E00
0000
0000
E0F0
E0F0
E0F0
E0F0
E0F0
E0F0
E0F0
E0F0
E0F0
E0F0
E0F0
E0F0
E0F0
E0F0
F0E0
FFE0
7FC0
1F80
ENDCHAR
STARTCHAR ubreve
ENCODING 365
SWIDTH 500 0
DWIDTH 13 0
BBX 11 19 1 0
BITMAP
3180
1F80
0E00
0000
0000
F1E0
F1E0
F1E0
F1E0
F1E0
F1E0
F1E0
F1E0
F1E0
F1E0
F1E0
7FE0
7EE0
3CE0
ENDCHAR
STARTCHAR Uring
ENCODING 366
SWIDTH 591 0
DWIDTH 15 0
BBX 12 24 2 0
BITMAP
0E00
1B00
1900
1900
0E00
0000
E0F0
E0F0
E0F0
E0F0
E0F0
E0F0
E0F0
E0F0
E0F0
E0F0
E0F0
E0F0
E0F0
E0F0
F0E0
FFE0
7FC0
1F80
ENDCHAR
STARTCHAR uring
ENCODING 367
SWIDTH 500 0
DWIDTH 13 0
BBX 11 20 1 0
BITMAP
0E00
1B00
1100
1B00
0E00
0000
F1E0
F1E0
F1E0
F1E0
F1E0
F1E0
F1E0
F1E0
F1E0
F1E0
F1E0
7FE0
7EE0
3CE0
ENDCHAR
STARTCHAR Uhungarumlaut
ENCODING 368
SWIDTH 591 0
DWIDTH 15 0
BBX 12 23 2 0
BITMAP
0EE0
0DC0
1B80
0000
0000
E0F0
E0F0
E0F0
E0F0
E0F0
E0F0
E0F0
E0F0
E0F0
E0F0
E0F0
E0F0
E0F0
E0F0
F0E0
FFE0
7FC0
1F80
ENDCHAR
STARTCHAR uhungarumlaut
ENCODING 369
SWIDTH 500 0
DWIDTH 13 0
BBX 11 19 1 0
BITMAP
0EC0
1D80
1B80
0000
0000
F1E0
F1E0
F1E0
F1E0
F1E0
F1E0
F1E0
F1E0
F1E0
F1E0
F1E0
7FE0
7EE0
3CE0
ENDCHAR
STARTCHAR Uogonek
ENCODING 370
SWIDTH 591 0
DWIDTH 15 0
BBX 12 23 2 -5
BITMAP
E0F0
E0F0
E0F0
E0F0
E0F0
E0F0
E0F0
E0F0
E0F0
E0F0
E0F0
E0F0
E0F0
E0F0
F0F0
FFE0
7FC0
1F80
0300
0700
0700
0780
0380
ENDCHAR
STARTCHAR uogonek
ENCODING 371
SWIDTH 500 0
DWIDTH 13 0
BBX 12 19 1 -5
BITMAP
F1E0
F1E0
F1E0
F1E0
F1E0
F1E0
F1E0
F1E0
F1E0
F1E0
F1E0
7FE0
7EE0
3CE0
00C0
01C0
01C0
01F0
00F0
ENDCHAR
STARTCHAR Wcircumflex
ENCODING 372
SWIDTH 773 0
DWIDTH 20 0
BBX 20 23 0 0
BITMAP
007000
00F000
01F800
019C00
000000
E0F070
F0F070
70F870
70F860
71F8E0
71F8E0
79F8E0
399CC0
399CC0
399DC0
3B9DC0
3B9DC0
1F0D80
1F0F80
1F0F80
1F0F80
0F0780
0E0700
ENDCHAR
STARTCHAR wcircumflex
ENCODING 373
SWIDTH 638 0
DWIDTH 17 0
BBX 17 19 0 0
BITMAP
01C000
03C000
036000
067000
000000
E1C380
E1C700
73C700
73E700
73E700
73E600
3B6E00
3F6E00
3F7E00
3E7C00
1E7C00
1E3C00
1E3C00
1E3800
ENDCHAR
STARTCHAR Ycircumflex
ENCODING 374
SWIDTH 546 0
DWIDTH 14 0
BBX 14 23 0 0
BITMAP
0380
0780
0FC0
0CE0
0000
F01C
703C
7838
3878
3C70
1CF0
1CE0
0FE0
0FC0
07C0
0780
0780
0780
0780
0780
0780
0780
0780
ENDCHAR
STARTCHAR ycircumflex
ENCODING 375
SWIDTH 456 0
DWIDTH 12 0
BBX 12 24 0 -5
BITMAP
0F00
0F00
1F80
3980
0000
F0F0
70E0
70E0
70E0
39E0
39C0
39C0
1DC0
1D80
1F80
1F80
0F80
0F00
0F00
0700
0E00
7E00
7C00
7800
ENDCHAR
STARTCHAR Ydieresis
ENCODING 376
SWIDTH 546 0
DWIDTH 14 0
BBX 14 23 0 0
BITMAP
0CE0
0CE0
0CE0
0000
0000
F01C
703C
7838
3878
3C70
1CF0
1CE0
0FE0
0FC0
07C0
0780
0780
0780
0780
0780
0780
0780
0780
ENDCHAR
STARTCHAR Zacute
ENCODING 377
SWIDTH 500 0
DWIDTH 13 0
BBX 12 23 0 0
BITMAP
01C0
0380
0700
0000
0000
7FF0
7FF0
7FF0
01E0
01E0
03C0
03C0
0780
0780
0F00
0E00
1E00
1C00
3C00
3800
7FF0
7FF0
FFF0
ENDCHAR
STARTCHAR zacute
ENCODING 378
SWIDTH 410 0
DWIDTH 11 0
BBX 10 19 0 0
BITMAP
0780
0700
0E00
0000
0000
7FC0
7FC0
7F80
0780
0700
0F00
0E00
1E00
1C00
3C00
3800
7FC0
7FC0
FFC0
ENDCHAR
STARTCHAR Zdotaccent
ENCODING 379
SWIDTH 500 0
DWIDTH 13 0
BBX 12 23 0 0
BITMAP
0700
0700
0700
0000
0000
7FF0
7FF0
7FF0
01E0
01E0
03C0
03C0
0780
0780
0F00
0E00
1E00
1C00
3C00
3800
7FF0
7FF0
FFF0
ENDCHAR
STARTCHAR zdotaccent
ENCODING 380
SWIDTH 410 0
DWIDTH 11 0
BBX 10 19 0 0
BITMAP
0E00
0E00
0E00
0000
0000
7FC0
7FC0
7F80
0780
0700
0F00
0E00
1E00
1C00
3C00
3800
7FC0
7FC0
FFC0
ENDCHAR
STARTCHAR Zcaron
ENCODING 381
SWIDTH 500 0
DWIDTH 13 0
BBX 12 23 0 0
BITMAP
1DC0
0D80
0F80
0700
0000
7FF0
7FF0
7FF0
01E0
01E0
03C0
03C0
0780
0780
0F00
0E00
1E00
1C00
3C00
3800
7FF0
7FF0
FFF0
ENDCHAR
STARTCHAR zcaron
ENCODING 382
SWIDTH 410 0
DWIDTH 11 0
BBX 10 19 0 0
BITMAP
3380
1B00
1E00
0E00
0000
7FC0
7FC0
7F80
0780
0700
0F00
0E00
1E00
1C00
3C00
3800
7FC0
7FC0
FFC0
ENDCHAR
STARTCHAR longs
ENCODING 383
SWIDTH 228 0
DWIDTH 6 0
BBX 7 19 0 0
BITMAP
1E
3E
3E
38
38
F8
F8
F8
38
38
38
38
38
38
38
38
38
38
38
ENDCHAR
STARTCHAR florin
ENCODING 402
SWIDTH 456 0
DWIDTH 12 0
BBX 12 24 0 -5
BITMAP
01F0
03E0
03E0
0380
0380
0780
1FE0
1FE0
1FC0
0700
0700
0700
0F00
0E00
0E00
0E00
0E00
0E00
0E00
1E00
1C00
7C00
7C00
F800
ENDCHAR
STARTCHAR Aringacute
ENCODING 506
SWIDTH 610 0
DWIDTH 16 0
BBX 15 25 0 0
BITMAP
00F0
00E0
01C0
0000
0380
0640
0640
07C0
07C0
07C0
06E0
0EE0
0EE0
0EF0
1C70
1C70
1C78
3C38
3838
3FFC
7FFC
7FFC
701E
F01E
E00E
ENDCHAR
STARTCHAR aringacute
ENCODING 507
SWIDTH 500 0
DWIDTH 13 0
BBX 12 23 0 0
BITMAP
03C0
0700
0600
0000
0E00
1900
1900
0E00
0000
1F00
3FC0
7FC0
71C0
01C0
1FC0
3FC0
7FC0
71C0
F1C0
F1C0
7FF0
7FF0
3CF0
ENDCHAR
STARTCHAR AEacute
ENCODING 508
SWIDTH 819 0
DWIDTH 21 0
BBX 20 23 0 0
BITMAP
001C00
003800
007000
000000
000000
03FFF0
03FFF0
03FFF0
07F000
07F000
067000
0E7000
0E7FE0
1C7FE0
1C3FE0
1C3800
383800
3FFC00
7FFC00
7FFC00
701FF0
E01FF0
E01FF0
ENDCHAR
STARTCHAR aeacute
ENCODING 509
SWIDTH 729 0
DWIDTH 19 0
BBX 17 19 1 0
BITMAP
007000
00E000
01C000
000000
000000
1F3C00
7FFF00
7FFF00
71C780
01C380
1FFF80
7FFF80
7FFF80
F1C000
E1C380
E3E780
FFFF00
7FFF00
3C3E00
ENDCHAR
STARTCHAR Oslashacute
ENCODING 510
SWIDTH 638 0
DWIDTH 17 0
BBX 15 24 1 -1
BITMAP
01E0
01C0
0380
0000
000E
0FCC
1FF8
3FF8
783C
707C
F0FC
E0DE
E19E
E19E
E31E
E61E
E61C
FC1C
FC3C
783C
7FF8
7FF0
6FC0
C000
ENDCHAR
STARTCHAR oslashacute
ENCODING 511
SWIDTH 500 0
DWIDTH 13 0
BBX 11 20 1 -1
BITMAP
0380
0700
0E00
0000
0060
1FC0
3FC0
7FC0
F1E0
F3E0
E6E0
E6E0
ECE0
ECE0
F8E0
F9E0
7FC0
7F80
7F00
C000
ENDCHAR
STARTCHAR circumflex
ENCODING 710
SWIDTH 272 0
DWIDTH 7 0
BBX 7 4 0 15
BITMAP
38
7C
6C
EE
ENDCHAR
STARTCHAR caron
ENCODING 711
SWIDTH 272 0
DWIDTH 7 0
BBX 7 4 0 15
BITMAP
EE
6C
7C
38
ENDCHAR
STARTCHAR uni02C9
ENCODING 713
SWIDTH 500 0
DWIDTH 13 0
BBX 13 2 0 21
BITMAP
FFF8
FFF8
ENDCHAR
STARTCHAR breve
ENCODING 728
SWIDTH 272 0
DWIDTH 7 0
BBX 7 3 0 16
BITMAP
C6
7C
38
ENDCHAR
STARTCHAR dotaccent
ENCODING 729
SWIDTH 272 0
DWIDTH 7 0
BBX 3 3 2 16
BITMAP
E0
E0
E0
ENDCHAR
STARTCHAR ring
ENCODING 730
SWIDTH 272 0
DWIDTH 7 0
BBX 5 5 1 15
BITMAP
70
D8
88
C8
70
ENDCHAR
STARTCHAR ogonek
ENCODING 731
SWIDTH 272 0
DWIDTH 7 0
BBX 4 5 2 -5
BITMAP
E0
C0
C0
F0
F0
ENDCHAR
STARTCHAR tilde
ENCODING 732
SWIDTH 272 0
DWIDTH 7 0
BBX 9 4 -1 15
BITMAP
7180
7F80
FF00
C200
ENDCHAR
STARTCHAR hungarumlaut
ENCODING 733
SWIDTH 272 0
DWIDTH 7 0
BBX 8 3 0 16
BITMAP
77
66
EC
ENDCHAR
STARTCHAR pi
ENCODING 960
SWIDTH 627 0
DWIDTH 16 0
BBX 14 14 1 0
BITMAP
FFFC
FFFC
FFFC
1C70
1C70
3C70
3870
3870
3870
3870
3870
3870
7070
7070
ENDCHAR
STARTCHAR Wgrave
ENCODING 7808
SWIDTH 773 0
DWIDTH 20 0
BBX 20 23 0 0
BITMAP
03C000
00E000
007000
000000
000000
E0F070
F0F070
70F870
70F860
71F8E0
71F8E0
79F8E0
399CC0
399CC0
399DC0
3B9DC0
3B9DC0
1F0D80
1F0F80
1F0F80
1F0F80
0F0780
0E0700
ENDCHAR
STARTCHAR wgrave
ENCODING 7809
SWIDTH 638 0
DWIDTH 17 0
BBX 17 19 0 0
BITMAP
070000
038000
01C000
000000
000000
E1C380
E1C700
73C700
73E700
73E700
73E600
3B6E00
3F6E00
3F7E00
3E7C00
1E7C00
1E3C00
1E3C00
1E3800
ENDCHAR
STARTCHAR Wacute
ENCODING 7810
SWIDTH 773 0
DWIDTH 20 0
BBX 20 23 0 0
BITMAP
003C00
007000
00E000
000000
000000
E0F070
F0F070
70F870
70F860
71F8E0
71F8E0
79F8E0
399CC0
399CC0
399DC0
3B9DC0
3B9DC0
1F0D80
1F0F80
1F0F80
1F0F80
0F0780
0E0700
ENDCHAR
STARTCHAR wacute
ENCODING 7811
SWIDTH 638 0
DWIDTH 17 0
BBX 17 19 0 0
BITMAP
00F000
00E000
01C000
000000
000000
E1C380
E1C700
73C700
73E700
73E700
73E600
3B6E00
3F6E00
3F7E00
3E7C00
1E7C00
1E3C00
1E3C00
1E3800
ENDCHAR
STARTCHAR Wdieresis
ENCODING 7812
SWIDTH 773 0
DWIDTH 20 0
BBX 20 23 0 0
BITMAP
039C00
039C00
039C00
000000
000000
E0F070
F0F070
70F870
70F860
71F8E0
71F8E0
79F8E0
399CC0
399CC0
399DC0
3B9DC0
3B9DC0
1F0D80
1F0F80
1F0F80
1F0F80
0F0780
0E0700
ENDCHAR
STARTCHAR wdieresis
ENCODING 7813
SWIDTH 638 0
DWIDTH 17 0
BBX 17 19 0 0
BITMAP
067000
067000
067000
000000
000000
E1C380
E1C700
73C700
73E700
73E700
73E600
3B6E00
3F6E00
3F7E00
3E7C00
1E7C00
1E3C00
1E3C00
1E3800
ENDCHAR
STARTCHAR Ygrave
ENCODING 7922
SWIDTH 546 0
DWIDTH 14 0
BBX 14 23 0 0
BITMAP
0E00
0700
0380
0000
0000
F01C
703C
7838
3878
3C70
1CF0
1CE0
0FE0
0FC0
07C0
0780
0780
0780
0780
0780
0780
0780
0780
ENDCHAR
STARTCHAR ygrave
ENCODING 7923
SWIDTH 456 0
DWIDTH 12 0
BBX 12 24 0 -5
BITMAP
3C00
0E00
0700
0000
0000
F0F0
70E0
70E0
70E0
39E0
39C0
39C0
1DC0
1D80
1F80
1F80
0F80
0F00
0F00
0700
0E00
7E00
7C00
7800
ENDCHAR
STARTCHAR endash
ENCODING 8211
SWIDTH 456 0
DWIDTH 12 0
BBX 12 3 0 6
BITMAP
FFF0
FFF0
FFF0
ENDCHAR
STARTCHAR emdash
ENCODING 8212
SWIDTH 819 0
DWIDTH 21 0
BBX 21 3 0 6
BITMAP
FFFFF8
FFFFF8
FFFFF8
ENDCHAR
STARTCHAR afii00208
ENCODING 8213
SWIDTH 819 0
DWIDTH 21 0
BBX 16 3 3 6
BITMAP
FFFF
FFFF
FFFF
ENDCHAR
STARTCHAR underscoredbl
ENCODING 8215
SWIDTH 500 0
DWIDTH 13 0
BBX 13 3 0 -6
BITMAP
FFF8
0000
FFF8
ENDCHAR
STARTCHAR quoteleft
ENCODING 8216
SWIDTH 228 0
DWIDTH 6 0
BBX 4 8 1 10
BITMAP
30
60
60
60
F0
F0
F0
F0
ENDCHAR
STARTCHAR quoteright
ENCODING 8217
SWIDTH 228 0
DWIDTH 6 0
BBX 4 8 1 10
BITMAP
F0
F0
F0
F0
60
60
60
C0
ENDCHAR
STARTCHAR quotesinglbase
ENCODING 8218
SWIDTH 228 0
DWIDTH 6 0
BBX 4 9 1 -5
BITMAP
F0
F0
F0
F0
70
60
60
60
C0
ENDCHAR
STARTCHAR quotereversed
ENCODING 8219
SWIDTH 228 0
DWIDTH 6 0
BBX 4 8 1 10
BITMAP
F0
F0
F0
F0
60
60
60
30
ENDCHAR
STARTCHAR quotedblleft
ENCODING 8220
SWIDTH 410 0
DWIDTH 11 0
BBX 9 8 1 10
BITMAP
3380
6300
6300
C600
F780
F780
F780
F780
ENDCHAR
STARTCHAR quotedblright
ENCODING 8221
SWIDTH 410 0
DWIDTH 11 0
BBX 9 8 1 10
BITMAP
F780
F780
F780
F780
6300
6300
6600
C600
ENDCHAR
STARTCHAR quotedblbase
ENCODING 8222
SWIDTH 410 0
DWIDTH 11 0
BBX 9 9 1 -5
BITMAP
F780
F780
F780
F780
7300
6300
6300
6600
C600
ENDCHAR
STARTCHAR dagger
ENCODING 8224
SWIDTH 456 0
DWIDTH 12 0
BBX 10 23 1 -5
BITMAP
1C00
0C00
0C00
0C00
0C00
FFC0
FFC0
8CC0
0C00
0C00
0C00
0C00
0C00
0C00
0C00
0C00
0C00
0C00
0C00
0C00
1C00
1C00
1C00
ENDCHAR
STARTCHAR daggerdbl
ENCODING 8225
SWIDTH 456 0
DWIDTH 12 0
BBX 10 23 1 -5
BITMAP
1C00
0C00
0C00
0C00
0C00
FFC0
FFC0
8CC0
0C00
0C00
0C00
1C00
0C00
0C00
0C00
0C00
FFC0
FFC0
8C40
0C00
0C00
0C00
1C00
ENDCHAR
STARTCHAR bullet
ENCODING 8226
SWIDTH 287 0
DWIDTH 7 0
BBX 6 6 1 6
BITMAP
70
F8
FC
FC
F8
70
ENDCHAR
STARTCHAR ellipsis
ENCODING 8230
SWIDTH 819 0
DWIDTH 21 0
BBX 18 4 2 0
BITMAP
E1C3C0
E1C3C0
E1C3C0
E1C3C0
ENDCHAR
STARTCHAR perthousand
ENCODING 8240
SWIDTH 819 0
DWIDTH 21 0
BBX 21 18 0 0
BITMAP
786000
7C4000
ECC000
CCC000
CCC000
CD8000
ED8000
7D8000
7B0000
0378F0
03FDF8
06CD98
06CD98
06CD98
0CCD98
0CCD98
0CFDF8
1878F0
ENDCHAR
STARTCHAR minute
ENCODING 8242
SWIDTH 194 0
DWIDTH 5 0
BBX 3 5 1 13
BITMAP
E0
E0
E0
C0
C0
ENDCHAR
STARTCHAR second
ENCODING 8243
SWIDTH 389 0
DWIDTH 10 0
BBX 7 5 1 13
BITMAP
EE
EE
EC
CC
CC
ENDCHAR
STARTCHAR guilsinglleft
ENCODING 8249
SWIDTH 272 0
DWIDTH 7 0
BBX 6 10 0 4
BITMAP
0C
1C
38
30
70
F0
30
38
1C
0C
ENDCHAR
STARTCHAR guilsinglright
ENCODING 8250
SWIDTH 272 0
DWIDTH 7 0
BBX 6 10 1 4
BITMAP
C0
60
70
38
38
3C
38
70
60
C0
ENDCHAR
STARTCHAR exclamdbl
ENCODING 8252
SWIDTH 545 0
DWIDTH 14 0
BBX 11 18 2 0
BITMAP
F1E0
E1E0
E1C0
E1C0
E1C0
E1C0
E1C0
E1C0
E1C0
E1C0
E1C0
E1C0
E0C0
0000
E1C0
E1C0
E1C0
E1C0
ENDCHAR
STARTCHAR uni203E
ENCODING 8254
SWIDTH 500 0
DWIDTH 13 0
BBX 13 2 0 21
BITMAP
FFF8
FFF8
ENDCHAR
STARTCHAR fraction
ENCODING 8260
SWIDTH 137 0
DWIDTH 4 0
BBX 12 18 -4 0
BITMAP
0030
0060
0040
00C0
0180
0180
0300
0200
0600
0400
0C00
1800
1800
3000
2000
6000
4000
C000
ENDCHAR
STARTCHAR uni207F
ENCODING 8319
SWIDTH 325 0
DWIDTH 8 0
BBX 7 9 1 10
BITMAP
DC
FC
CE
CE
CE
CE
CE
CE
CE
ENDCHAR
STARTCHAR franc
ENCODING 8355
SWIDTH 503 0
DWIDTH 13 0
BBX 12 18 1 0
BITMAP
FF80
FF80
FF80
E000
E000
E010
E3B0
E3F0
FFC0
FF80
FF80
E380
E380
E380
E380
E380
E380
E380
ENDCHAR
STARTCHAR lira
ENCODING 8356
SWIDTH 456 0
DWIDTH 12 0
BBX 11 18 0 0
BITMAP
0F80
1FC0
3FE0
38E0
38E0
3800
FF00
FF00
FF00
3800
FF00
FF00
FF00
3800
3800
7FE0
7FE0
7FE0
ENDCHAR
STARTCHAR peseta
ENCODING 8359
SWIDTH 960 0
DWIDTH 25 0
BBX 23 18 1 0
BITMAP
FE1800
FF9800
FF9800
F3F800
F3FFF8
F1FFFC
F3FFFE
F3F9CE
FFB9C0
FF39E0
FC38F8
F0387E
F0381E
F03BCE
F03BCE
F03FFE
F01FFE
F00EF8
ENDCHAR
STARTCHAR Euro
ENCODING 8364
SWIDTH 456 0
DWIDTH 12 0
BBX 11 18 0 0
BITMAP
03E0
0FE0
1FE0
1E00
3C00
FFC0
FFC0
FFC0
3800
FFC0
FFC0
FFC0
3800
3C00
1E00
0FE0
07E0
03E0
ENDCHAR
STARTCHAR afii61248
ENCODING 8453
SWIDTH 789 0
DWIDTH 21 0
BBX 18 18 1 0
BITMAP
7C0600
7E0C00
E60C00
C61800
C03000
C03000
C66000
E66000
7CCF00
3D9F80
019980
0339C0
0330C0
0630C0
0E31C0
0C39C0
181F80
381F00
ENDCHAR
STARTCHAR afii61289
ENCODING 8467
SWIDTH 490 0
DWIDTH 13 0
BBX 10 19 1 0
BITMAP
0F00
1F80
3DC0
38C0
38C0
39C0
3980
3B80
3F00
3E00
3C00
3800
7800
F800
F800
B800
3CC0
1FC0
0FC0
ENDCHAR
STARTCHAR afii61352
ENCODING 8470
SWIDTH 914 0
DWIDTH 24 0
BBX 21 18 2 0
BITMAP
E071E0
E073F0
F07330
F07738
F87738
FC7738
FC7730
DE7330
EE73F0
EF71E0
E77000
E7F3F0
E3F3F0
E3F000
E1F000
E1F000
E0F000
E07000
ENDCHAR
STARTCHAR trademark
ENCODING 8482
SWIDTH 819 0
DWIDTH 21 0
BBX 17 11 2 7
BITMAP
FEE380
FEE380
18E380
18F380
18F780
18F580
18D580
18DD80
18DD80
18DD80
18C980
ENDCHAR
STARTCHAR Omega
ENCODING 8486
SWIDTH 768 0
DWIDTH 20 0
BBX 14 18 3 0
BITMAP
0FC0
3FF0
7FF8
7878
F03C
E01C
E01C
E01C
E01C
E01C
E01C
E01C
E01C
7038
7038
F87C
FCFC
FCFC
ENDCHAR
STARTCHAR estimated
ENCODING 8494
SWIDTH 600 0
DWIDTH 16 0
BBX 14 14 1 0
BITMAP
0F80
1860
2010
6018
6018
E018
FFFC
FFFC
E000
E000
6010
6018
3020
1FC0
ENDCHAR
STARTCHAR oneeighth
ENCODING 8539
SWIDTH 684 0
DWIDTH 18 0
BBX 16 18 1 0
BITMAP
300C
F008
F018
3030
3030
3060
3040
30DE
FCBF
FDB3
0333
031E
061E
0433
0C33
0833
183F
301E
ENDCHAR
STARTCHAR threeeighths
ENCODING 8540
SWIDTH 684 0
DWIDTH 18 0
BBX 16 18 1 0
BITMAP
780C
FC08
CC18
1C30
3830
3860
0C40
CCDE
CDBF
F9B3
7333
031E
061E
0433
0C33
1833
183F
301E
ENDCHAR
STARTCHAR fiveeighths
ENCODING 8541
SWIDTH 684 0
DWIDTH 18 0
BBX 16 18 1 0
BITMAP
FC0C
FC18
C018
C030
F820
FC60
4C40
CCCC
CD9E
F9B3
7333
021E
061E
0433
0C33
1833
183F
301E
ENDCHAR
STARTCHAR seveneighths
ENCODING 8542
SWIDTH 684 0
DWIDTH 18 0
BBX 16 18 1 0
BITMAP
FE18
FC18
0C30
1820
1860
30C0
30C0
319E
71BF
7333
0233
061E
0C1E
0C33
1833
1833
303F
601E
ENDCHAR
STARTCHAR arrowleft
ENCODING 8592
SWIDTH 1000 0
DWIDTH 26 0
BBX 24 9 1 2
BITMAP
0E0000
1C0000
380000
7FFFFF
FFFFFF
7FFFFF
380000
1C0000
0E0000
ENDCHAR
STARTCHAR arrowup
ENCODING 8593
SWIDTH 500 0
DWIDTH 13 0
BBX 9 24 2 -5
BITMAP
0800
1C00
3E00
3E00
7F00
FF80
9C80
1C00
1C00
1C00
1C00
1C00
1C00
1C00
1C00
1C00
1C00
1C00
1C00
1C00
1C00
1C00
1C00
1C00
ENDCHAR
STARTCHAR arrowright
ENCODING 8594
SWIDTH 1000 0
DWIDTH 26 0
BBX 24 9 1 2
BITMAP
000070
000038
00001C
FFFFFE
FFFFFF
FFFFFE
00001C
000038
000070
ENDCHAR
STARTCHAR arrowdown
ENCODING 8595
SWIDTH 500 0
DWIDTH 13 0
BBX 9 24 2 -5
BITMAP
1C00
1C00
1C00
1C00
1C00
1C00
1C00
1C00
1C00
1C00
1C00
1C00
1C00
1C00
1C00
1C00
1C00
1C00
9C80
FF80
7F00
3E00
1C00
1C00
ENDCHAR
STARTCHAR arrowboth
ENCODING 8596
SWIDTH 1000 0
DWIDTH 26 0
BBX 24 9 1 2
BITMAP
0E0070
1C0038
38001C
7FFFFE
FFFFFF
7FFFFE
38001C
1C0038
0E0070
ENDCHAR
STARTCHAR arrowupdn
ENCODING 8597
SWIDTH 500 0
DWIDTH 13 0
BBX 9 24 2 -5
BITMAP
0800
1C00
3E00
3E00
7F00
FF80
9C80
1C00
1C00
1C00
1C00
1C00
1C00
1C00
1C00
1C00
1C00
1C00
9C80
FF80
7F00
3E00
1C00
1C00
ENDCHAR
STARTCHAR arrowupdnbse
ENCODING 8616
SWIDTH 500 0
DWIDTH 13 0
BBX 9 25 2 -6
BITMAP
0800
1C00
3E00
3E00
7F00
FF80
9C80
1C00
1C00
1C00
1C00
1C00
1C00
1C00
1C00
9C80
FF80
7F00
7E00
3E00
1C00
0800
0000
FF80
FF80
ENDCHAR
STARTCHAR partialdiff
ENCODING 8706
SWIDTH 494 0
DWIDTH 13 0
BBX 11 19 1 0
BITMAP
3E00
7F80
6780
03C0
01C0
01E0
00E0
0CE0
3EE0
7FE0
71E0
F1E0
E1E0
E1C0
E1C0
E3C0
F780
7F80
3F00
ENDCHAR
STARTCHAR Delta
ENCODING 8710
SWIDTH 588 0
DWIDTH 15 0
BBX 15 18 0 0
BITMAP
07C0
07C0
07C0
07E0
0EE0
0EE0
0EF0
1C70
1C70
1C78
3838
3838
3838
783C
701C
7FFC
FFFE
FFFE
ENDCHAR
STARTCHAR product
ENCODING 8719
SWIDTH 823 0
DWIDTH 21 0
BBX 17 22 2 -3
BITMAP
FFFF80
FFFF80
FFFF80
1C0E00
1C0E00
1C0E00
1C0E00
1C0E00
1C0E00
1C0E00
1C0E00
1C0E00
1C0E00
1C0E00
1C0E00
1C0E00
1C0E00
1C0E00
1C0E00
1C0E00
1C0E00
1C0E00
ENDCHAR
STARTCHAR summation
ENCODING 8721
SWIDTH 712 0
DWIDTH 19 0
BBX 15 22 2 -3
BITMAP
FFFE
FFFE
7FFE
7800
3C00
1E00
0F00
0780
0780
03C0
01E0
01E0
01C0
0380
0700
0F00
1E00
1C00
3800
7FFE
FFFE
FFFE
ENDCHAR
STARTCHAR minus
ENCODING 8722
SWIDTH 479 0
DWIDTH 12 0
BBX 11 3 1 5
BITMAP
FFE0
FFE0
FFE0
ENDCHAR
STARTCHAR uni2215
ENCODING 8725
SWIDTH 137 0
DWIDTH 4 0
BBX 12 18 -4 0
BITMAP
0030
0060
00C0
00C0
0180
0180
0300
0200
0600
0400
0C00
1800
1800
3000
3000
6000
4000
C000
ENDCHAR
STARTCHAR uni2219
ENCODING 8729
SWIDTH 272 0
DWIDTH 7 0
BBX 3 4 2 7
BITMAP
E0
E0
E0
E0
ENDCHAR
STARTCHAR radical
ENCODING 8730
SWIDTH 548 0
DWIDTH 14 0
BBX 14 26 1 -4
BITMAP
001C
0018
0018
0018
0018
0038
0030
0030
0030
0030
0030
0030
3060
F860
F860
3860
1C60
1C60
0CC0
0EC0
0EC0
07C0
07C0
03C0
03C0
0380
ENDCHAR
STARTCHAR infinity
ENCODING 8734
SWIDTH 712 0
DWIDTH 19 0
BBX 16 8 1 4
BITMAP
3C1C
7F7E
77E7
E3C3
E1C3
E3E7
7F7F
3E3E
ENDCHAR
STARTCHAR orthogonal
ENCODING 8735
SWIDTH 979 0
DWIDTH 25 0
BBX 17 16 4 0
BITMAP
E00000
E00000
E00000
E00000
E00000
E00000
E00000
E00000
E00000
E00000
E00000
E00000
E00000
FFFF80
FFFF80
FFFF80
ENDCHAR
STARTCHAR intersection
ENCODING 8745
SWIDTH 722 0
DWIDTH 19 0
BBX 15 18 2 0
BITMAP
07C0
1FF0
3FF8
787C
701C
F01C
E01E
E00E
E00E
E00E
E00E
E00E
E00E
E00E
E00E
E00E
E00E
E00E
ENDCHAR
STARTCHAR integral
ENCODING 8747
SWIDTH 273 0
DWIDTH 7 0
BBX 6 26 1 -4
BITMAP
3C
78
70
70
70
70
70
70
70
70
70
70
70
70
70
70
70
70
70
70
70
70
30
70
F0
C0
ENDCHAR
STARTCHAR approxequal
ENCODING 8776
SWIDTH 548 0
DWIDTH 14 0
BBX 13 11 1 0
BITMAP
3808
FE38
FFF8
C7F0
81E0
0008
7C18
FFF8
FFF0
83E0
8000
ENDCHAR
STARTCHAR notequal
ENCODING 8800
SWIDTH 548 0
DWIDTH 14 0
BBX 11 12 2 1
BITMAP
0180
0180
FFE0
FFE0
FFE0
0600
0C00
0C00
FFE0
FFE0
FFE0
7000
ENDCHAR
STARTCHAR equivalence
ENCODING 8801
SWIDTH 478 0
DWIDTH 12 0
BBX 11 14 1 0
BITMAP
FFE0
FFE0
FFE0
0000
0000
FFE0
FFE0
FFE0
0000
0000
0000
FFE0
FFE0
FFE0
ENDCHAR
STARTCHAR lessequal
ENCODING 8804
SWIDTH 548 0
DWIDTH 14 0
BBX 11 18 2 0
BITMAP
0020
00E0
03E0
0FC0
3F00
FC00
F000
E000
F800
7E00
1F80
07E0
01E0
0060
0000
FFE0
FFE0
FFE0
ENDCHAR
STARTCHAR greaterequal
ENCODING 8805
SWIDTH 548 0
DWIDTH 14 0
BBX 11 18 2 0
BITMAP
8000
C000
F000
FC00
3F00
0FC0
03E0
01E0
07E0
1F80
7E00
F800
E000
8000
0000
FFE0
FFE0
FFE0
ENDCHAR
STARTCHAR house
ENCODING 8962
SWIDTH 600 0
DWIDTH 16 0
BBX 12 15 2 0
BITMAP
0400
0600
0F00
1F80
3BC0
71C0
F0E0
E070
C070
C070
C070
C070
C070
FFF0
FFF0
ENDCHAR
STARTCHAR revlogicalnot
ENCODING 8976
SWIDTH 479 0
DWIDTH 12 0
BBX 11 7 1 5
BITMAP
FFE0
FFE0
FFE0
E000
E000
E000
E000
ENDCHAR
STARTCHAR integraltp
ENCODING 8992
SWIDTH 604 0
DWIDTH 16 0
BBX 5 29 6 -7
BITMAP
78
F8
E0
E0
E0
E0
E0
E0
E0
E0
E0
E0
E0
E0
E0
E0
E0
E0
E0
E0
E0
E0
E0
E0
E0
60
70
70
70
ENDCHAR
STARTCHAR integralbt
ENCODING 8993
SWIDTH 604 0
DWIDTH 16 0
BBX 5 29 5 -7
BITMAP
70
70
70
70
70
70
70
70
70
70
70
70
70
70
70
70
70
70
70
70
30
30
30
30
30
38
70
F0
80
ENDCHAR
STARTCHAR commaaccent
ENCODING 63171
SWIDTH 272 0
DWIDTH 7 0
BBX 3 6 2 -7
BITMAP
E0
E0
E0
E0
60
C0
ENDCHAR
STARTCHAR uniFB01
ENCODING 64257
SWIDTH 500 0
DWIDTH 13 0
BBX 12 19 0 0
BITMAP
1EF0
3EF0
3EF0
3800
3800
FEF0
FEF0
FEF0
38F0
38F0
38F0
38F0
38F0
38F0
38F0
38F0
38F0
38F0
38F0
ENDCHAR
STARTCHAR uniFB02
ENCODING 64258
SWIDTH 500 0
DWIDTH 13 0
BBX 12 19 0 0
BITMAP
1EF0
3EF0
3EF0
38F0
38F0
FEF0
FEF0
FEF0
38F0
38F0
38F0
38F0
38F0
38F0
38F0
38F0
38F0
38F0
38F0
ENDCHAR
STARTCHAR .notdef
ENCODING -1
SWIDTH 228 0
DWIDTH 6 0
BBX 13 18 0 0
BITMAP
FFF8
C018
E038
B068
9048
98C8
8D88
8508
8708
8708
8508
8D88
98C8
9048
B068
E038
C018
FFF8
ENDCHAR
STARTCHAR NULL
ENCODING -1
SWIDTH 0 0
DWIDTH 0 0
BBX 1 1 0 0
BITMAP
00
ENDCHAR
ENDFONT
